<?xml version="1.0" encoding="UTF-8"?>
<svg width="278px" height="84px" viewBox="0 0 278 84" version="1.1" xmlns="http://www.w3.org/2000/svg" xmlns:xlink="http://www.w3.org/1999/xlink">
    <!-- Generator: Sketch 45.2 (43514) - http://www.bohemiancoding.com/sketch -->
    <title>Artboard</title>
    <desc>Created with Sketch.</desc>
    <defs></defs>
    <g id="Page-1" stroke="none" stroke-width="1" fill="none" fill-rule="evenodd">
        <g id="Group-2" transform="translate(-154.000000, -165.000000)">
            <g id="bg" transform="translate(67.000000, 160.000000)" fill-rule="nonzero">
                <g id="airplane-copy" transform="translate(261.000000, 12.000000)">
                    <path d="M31.1480183,14.6413755 C30.9943993,14.6312041 30.846913,14.6280629 30.7074293,14.6327747 L23.2263166,14.9040387 L16.4323013,2.54795205 C15.8327084,1.45743635 14.6869228,0.779912059 13.4424141,0.779912059 L11.9471339,0.779912059 L16.1566995,15.1604194 L5.14608832,16.1546802 L3.30475394,10.7697868 L0.747901859,10.7697868 L1.86975465,18.3983857 L0.747901859,26.0269847 L3.30475394,26.0269847 L5.14608832,20.6420913 L16.1566995,21.636352 L11.9471339,36.0168594 L13.4424141,36.0168594 C14.6869228,36.0168594 15.8326336,35.3393351 16.4323013,34.2488194 L23.2263166,21.8927328 L30.7074293,22.1639968 C30.8606744,22.1691573 31.0235674,22.1648195 31.1935655,22.1521052 C31.3500266,20.7023722 31.4866683,19.2054466 31.4866683,18.3983857 C31.4866683,17.6012719 31.3225038,16.0574529 31.1480183,14.6413755 Z" id="Shape" fill="#CCCCCC"></path>
                    <path d="M36.7967715,18.3983857 C36.7967715,17.0784885 35.2771845,15.9214096 33.6144491,15.248971 C33.7590185,16.4802418 33.8799542,17.7143547 33.8799542,18.3983857 C33.8799542,19.0906437 33.7794362,20.2903531 33.6521433,21.5325433 C35.2999955,20.857861 36.7967715,19.7083358 36.7967715,18.3983857 Z" id="Shape" fill="#CCCCCC"></path>
                    <path d="M33.6144491,15.248971 C32.7688712,14.9069555 31.8865714,14.6902883 31.1480183,14.6413755 C31.3225038,16.0574529 31.4866683,17.6012719 31.4866683,18.3983857 C31.4866683,19.2054466 31.3500266,20.7023722 31.1935655,22.1521052 C31.933764,22.0966856 32.8123991,21.876279 33.6520685,21.5325433 C33.7794362,20.2903531 33.8799542,19.0906437 33.8799542,18.3983857 C33.8799542,17.7143547 33.7590185,16.4802418 33.6144491,15.248971 Z" id="Shape" fill="#29ABE2"></path>
                    <g id="Group" fill="#000000">
                        <path d="M33.8949123,14.5555912 C32.9762644,14.1840335 32.0182769,13.9494915 31.1975294,13.8950443 C31.1974546,13.8950443 31.1973798,13.8950443 31.197305,13.8950443 C31.0166119,13.883003 30.8430987,13.8797871 30.6803553,13.8853215 L23.6596509,14.1399073 L17.0876877,2.18761294 C16.3566137,0.857993013 14.9598321,0.0320101996 13.4424889,0.0320101996 L11.9472087,0.0320101996 C11.7116944,0.0320101996 11.4899415,0.142924045 11.3486628,0.331470104 C11.2073841,0.520016163 11.1632579,0.763981749 11.2293725,0.990072481 L15.1833052,14.4974044 L5.66378599,15.3570428 L4.01249347,10.5278405 C3.90905865,10.2252394 3.62463157,10.0218849 3.30482873,10.0218849 L0.747901859,10.0218849 C0.530561579,10.0218849 0.323991085,10.1164197 0.181889732,10.2808833 C0.0398631691,10.4454217 -0.0236336987,10.6635099 0.00800254989,10.8786065 L1.11385024,18.3983857 L0.00800254989,25.918165 C-0.0236336987,26.1331868 0.0398631691,26.3513497 0.181889732,26.5158881 C0.323991085,26.6803518 0.530561579,26.7748866 0.747901859,26.7748866 L3.30482873,26.7748866 C3.62463157,26.7748866 3.90905865,26.571532 4.01249347,26.2689309 L5.66378599,21.4397286 L15.1833052,22.299367 L11.2293725,35.806699 C11.1631831,36.0327897 11.2073841,36.2767553 11.3486628,36.4653014 C11.4899415,36.6538474 11.7116944,36.7647613 11.9472087,36.7647613 L13.4424889,36.7647613 C14.9598321,36.7647613 16.3566137,35.9387785 17.0876877,34.6091585 L23.6596509,22.6567893 L30.6821502,22.9113751 C30.8589542,22.9172836 31.0498936,22.9127961 31.2495086,22.8978381 C31.2496582,22.8978381 31.249733,22.8978381 31.2498825,22.8977633 C32.0719015,22.8361362 33.0256259,22.597032 33.9354485,22.2245769 C36.1954584,21.2994223 37.5446733,19.8690599 37.5446733,18.3983857 C37.5446733,16.916493 36.180276,15.4799979 33.8949123,14.5555912 Z M32.9234625,15.7880587 C33.0601042,17.0074379 33.1320524,17.9053688 33.1320524,18.3983857 C33.1320524,18.9148868 33.0720706,19.7888101 32.9539021,20.9980178 C32.6468884,21.10594 32.3371075,21.1957631 32.037498,21.2643457 C32.1683808,19.9418308 32.2345701,18.980029 32.2345701,18.3983857 C32.2345701,17.8284845 32.1577606,16.8641399 32.0060113,15.5251712 L32.0060861,15.5251712 C32.3052468,15.5923327 32.6154765,15.6811087 32.9234625,15.7880587 Z M5.2133247,19.8972558 C4.86943942,19.8664423 4.54993575,20.0739103 4.43842358,20.4001451 L2.77007891,25.2790828 L1.61382263,25.2790828 L2.60965396,18.5072055 C2.62027416,18.4350329 2.62027416,18.3617385 2.60965396,18.289566 L1.61382263,11.5176886 L2.77007891,11.5176886 L4.43842358,16.3966264 C4.54986096,16.7227116 4.86951421,16.9304788 5.2133247,16.8995156 L16.2239359,15.9052549 C16.4467358,15.8851363 16.6488937,15.7663695 16.7747656,15.5814134 C16.9006375,15.3964572 16.9372847,15.1649816 16.8744609,14.950259 L12.9453585,1.52781392 L13.4424141,1.52781392 C14.4141629,1.52781392 15.3086536,2.0568049 15.7769149,2.90836596 L21.9830046,14.1951773 L20.9111864,14.2383312 C20.4984194,14.2549346 20.1773451,14.6029334 20.1939485,15.0157004 C20.210178,15.4181464 20.5414985,15.7335366 20.9407285,15.7335366 C20.9509,15.7335366 20.9610715,15.733387 20.9713177,15.7329383 L23.1364188,15.6458077 C23.1749357,15.6505195 23.2139014,15.6529876 23.2533906,15.6515666 L30.4847041,15.3893522 C30.6513367,16.8160498 30.7387664,17.8492762 30.7387664,18.3983857 C30.7387664,18.9653701 30.6633779,19.9988957 30.5196312,21.4087655 L23.9261284,21.1696613 C23.9126661,21.1684646 23.8994283,21.1665949 23.8857417,21.1661461 L16.0521428,20.876035 L5.2133247,19.8972558 Z M15.7769149,33.8884055 C15.3086536,34.7399666 14.4141629,35.2689575 13.4424141,35.2689575 L12.9453585,35.2689575 L16.7132133,22.3972674 L17.3596248,22.4212003 L16.321911,25.9664046 C16.2059114,26.3627926 16.4331988,26.7782521 16.8295868,26.8942517 C16.89974,26.9147442 16.9704915,26.9245417 17.0400464,26.9245417 C17.3635887,26.9245417 17.6619268,26.7128107 17.7575086,26.3865759 L18.9014993,22.4782652 L21.9879407,22.5926194 L15.7769149,33.8884055 Z M34.5237481,20.2584177 C34.5929291,19.4432046 34.6278561,18.8202024 34.6278561,18.3983857 C34.6278561,17.9834498 34.5868711,17.3565584 34.5055741,16.5266117 C35.4608692,17.111471 36.0488696,17.8020088 36.0488696,18.3983857 C36.0488696,18.9892282 35.4677499,19.6755777 34.5237481,20.2584177 Z" id="Shape"></path>
                        <path d="M18.397937,15.8358496 C18.4081085,15.8358496 18.4182051,15.8357 18.4284514,15.8352513 L18.8771177,15.8172268 C19.2898847,15.8006234 19.6110338,15.4526247 19.5944304,15.0398576 C19.5777522,14.6270906 19.2289307,14.305418 18.8170612,14.3226198 L18.3683949,14.3406442 C17.9556278,14.3572476 17.6344788,14.7052464 17.6510822,15.1180134 C17.6673865,15.5204594 17.998707,15.8358496 18.397937,15.8358496 Z" id="Shape"></path>
                        <path d="M16.68053,27.4032737 C16.2839924,27.2873489 15.8686825,27.5144867 15.7526081,27.9109495 L15.2709593,29.5564084 C15.1549597,29.9528711 15.3822471,30.3682558 15.7786351,30.4843302 C15.8487883,30.5048227 15.9195398,30.5146202 15.9890947,30.5146202 C16.312637,30.5146202 16.6109751,30.3028892 16.7065569,29.9766544 L17.1882057,28.3311955 C17.3042053,27.9347328 17.0769179,27.5193481 16.68053,27.4032737 Z" id="Shape"></path>
                    </g>
                </g>
                <g id="bus-(1)-copy-3" transform="translate(309.000000, 45.000000)">
                    <g id="Group" transform="translate(3.864998, 0.773000)">
                        <g>
                            <rect id="Rectangle-path" fill="#FBB03B" x="0.0303788827" y="20.8532091" width="31.0139018" height="10.2882376"></rect>
                            <path d="M31.0442034,3.11719803 C31.0442034,1.4124248 29.6622348,0.0303788827 27.9573843,0.0303788827 L3.11712073,0.0303788827 C1.4123475,0.0303788827 0.0303015827,1.4123475 0.0303015827,3.11719803 L0.0303015827,7.78433747 L31.0442034,7.78433747 L31.0442034,3.11719803 Z" id="Shape" fill="#FBB03B"></path>
                            <rect id="Rectangle-path" fill="#29ABE2" x="0.0303788827" y="7.78433747" width="31.0139018" height="13.0688717"></rect>
                        </g>
                        <rect id="Rectangle-path" fill="#CCCCCC" x="6.6675077" y="2.50119468" width="17.7959186" height="2.78063402"></rect>
                    </g>
                    <g id="Group" transform="translate(5.256397, 31.847582)" fill="#333333">
                        <path d="M2.281972,4.9168956 L1.81855876,4.9168956 C0.820384433,4.9168956 0.0111311937,4.10771966 0.0111311937,3.10946803 L0.0111311937,0.0668644619 L4.08939957,0.0668644619 L4.08939957,3.10946803 C4.08932227,4.10771966 3.28014633,4.9168956 2.281972,4.9168956 Z" id="Shape"></path>
                        <path d="M26.4733024,4.9168956 L26.0098892,4.9168956 C25.0117149,4.9168956 24.2024616,4.10771966 24.2024616,3.10946803 L24.2024616,0.0668644619 L28.28073,0.0668644619 L28.28073,3.10946803 C28.2806527,4.10771966 27.4714768,4.9168956 26.4733024,4.9168956 Z" id="Shape"></path>
                    </g>
                    <circle id="Oval" fill="#CCCCCC" cx="9.11714331" cy="26.8453471" r="1.66913795"></circle>
                    <circle id="Oval" fill="#CCCCCC" cx="29.6874346" cy="26.8453471" r="1.66913795"></circle>
                    <rect id="Rectangle-path" fill="#FBB03B" x="34.926671" y="14.6201272" width="3.10490733" height="6.98598352"></rect>
                    <g id="Group">
                        <rect id="Rectangle-path" fill="#FBB03B" x="0.77299956" y="14.6201272" width="3.10490733" height="6.98598352"></rect>
                        <g id="Shape" fill="#000000">
                            <path d="M28.3285014,2.50119468 L10.5325055,2.50119468 C10.1055778,2.50119468 9.75950594,2.84726658 9.75950594,3.27419424 L9.75950594,6.05482825 C9.75950594,6.48175591 10.1055778,6.82782781 10.5325055,6.82782781 L28.3285014,6.82782781 C28.7553517,6.82782781 29.1015009,6.48175591 29.1015009,6.05482825 L29.1015009,3.27419424 C29.1015009,2.84726658 28.7553517,2.50119468 28.3285014,2.50119468 Z M27.5555018,5.28182869 L11.3055051,5.28182869 L11.3055051,4.0471938 L27.5555018,4.0471938 L27.5555018,5.28182869 Z"></path>
                            <path d="M6.91772766,12.2036533 L18.0401864,12.2036533 C18.4671141,12.2036533 18.813186,11.8575813 18.813186,11.4306537 C18.813186,11.003726 18.4671141,10.6576541 18.0401864,10.6576541 L6.91772766,10.6576541 C6.4908,10.6576541 6.1447281,11.003726 6.1447281,11.4306537 C6.1447281,11.8575813 6.4908,12.2036533 6.91772766,12.2036533 Z"></path>
                            <path d="M21.1914737,12.2036533 L22.5817907,12.2036533 C23.0086411,12.2036533 23.3547903,11.8575813 23.3547903,11.4306537 C23.3547903,11.003726 23.0086411,10.6576541 22.5817907,10.6576541 L21.1914737,10.6576541 C20.7646234,10.6576541 20.4184742,11.003726 20.4184742,11.4306537 C20.4184742,11.8575813 20.7646234,12.2036533 21.1914737,12.2036533 Z"></path>
                            <path d="M9.11714331,29.2874846 C10.4637085,29.2874846 11.5592808,28.1919896 11.5592808,26.8454244 C11.5592808,25.4988592 10.4637858,24.4032869 9.11714331,24.4032869 C7.77050078,24.4032869 6.6750058,25.4987819 6.6750058,26.8454244 C6.6750058,28.1919896 7.77050078,29.2874846 9.11714331,29.2874846 Z M9.11714331,25.949286 C9.61124463,25.949286 10.0132817,26.3513231 10.0132817,26.8454244 C10.0132817,27.3395257 9.61124463,27.7414855 9.11714331,27.7414855 C8.62304199,27.7414855 8.22100492,27.3395257 8.22100492,26.8454244 C8.22100492,26.3513231 8.62304199,25.949286 9.11714331,25.949286 Z"></path>
                            <path d="M29.6874346,29.2874846 C31.0339998,29.2874846 32.1295721,28.1919896 32.1295721,26.8454244 C32.1295721,25.4988592 31.0339998,24.4032869 29.6874346,24.4032869 C28.3408694,24.4032869 27.2453744,25.4987819 27.2453744,26.8454244 C27.2453744,28.1919896 28.3408694,29.2874846 29.6874346,29.2874846 Z M29.6874346,25.949286 C30.1816132,25.949286 30.583573,26.3513231 30.583573,26.8454244 C30.583573,27.3395257 30.1816132,27.7414855 29.6874346,27.7414855 C29.1933333,27.7414855 28.7913735,27.3395257 28.7913735,26.8454244 C28.7913735,26.3513231 29.1933333,25.949286 29.6874346,25.949286 Z"></path>
                            <path d="M35.6822008,3.89019759 C35.6822008,1.7618979 33.9507591,0.0303788827 31.8223821,0.0303788827 L6.98219582,0.0303788827 C4.85389614,0.0303788827 3.12237712,1.7618979 3.12237712,3.89019759 L3.12237712,13.8471276 L0.77299956,13.8471276 C0.346071903,13.8471276 0,14.1931995 0,14.6201272 L0,21.6061107 C0,22.0330384 0.346071903,22.3791103 0.77299956,22.3791103 L3.12237712,22.3791103 L3.12237712,31.9144463 C3.12237712,32.341374 3.46844903,32.6874459 3.89537668,32.6874459 L4.49452864,32.6874459 L4.49452864,34.9570499 C4.49452864,36.3799102 5.65209548,37.5373997 7.07495577,37.5373997 L7.53836901,37.5373997 C8.9612293,37.5373997 10.1187961,36.3798329 10.1187961,34.9570499 L10.1187961,32.6874459 L28.6858591,32.6874459 L28.6858591,34.9570499 C28.6858591,36.3799102 29.8434259,37.5373997 31.2662862,37.5373997 L31.7296994,37.5373997 C33.1525597,37.5373997 34.3101266,36.3798329 34.3101266,34.9570499 L34.3101266,32.6874459 L34.9092785,32.6874459 C35.3361289,32.6874459 35.6822781,32.341374 35.6822781,31.9144463 L35.6822781,22.3791103 L38.0315783,22.3791103 C38.4584287,22.3791103 38.8045779,22.0330384 38.8045779,21.6061107 L38.8045779,14.6201272 C38.8045779,14.1931995 38.4584287,13.8471276 38.0315783,13.8471276 L35.6822008,13.8471276 L35.6822008,3.89019759 Z M4.66837624,31.1415241 L4.66837624,22.3992855 L34.136279,22.3992855 L34.136279,31.1415241 L4.66837624,31.1415241 Z M34.1362017,20.8532864 L30.7335349,20.8532864 C30.6925659,20.8313332 30.6494325,20.8122402 30.6035937,20.7975532 L20.7788466,17.6461113 C20.3721715,17.5156289 19.9369727,17.7395669 19.806645,18.1460874 C19.6763173,18.5526078 19.9001007,18.9878839 20.3066211,19.1182116 L25.7158402,20.8532091 L17.8500285,20.8532091 L7.8952629,17.6461113 C7.48858784,17.5156289 7.05346638,17.7394896 6.92313866,18.1460874 C6.79273363,18.5526078 7.01659431,18.9878839 7.42311477,19.1182116 L12.8323338,20.8532091 L4.66837624,20.8532091 L4.66837624,9.33033659 L34.136279,9.33033659 L34.136279,20.8532864 L34.1362017,20.8532864 Z M4.66837624,3.89019759 C4.66837624,2.61436181 5.70636005,1.576378 6.98219582,1.576378 L31.8224594,1.576378 C33.0982952,1.576378 34.136279,2.61436181 34.136279,3.89019759 L34.136279,7.78433747 L4.66837624,7.78433747 L4.66837624,3.89019759 Z M3.10490733,20.8331111 L1.54599912,20.8331111 L1.54599912,15.3931267 L3.10490733,15.3931267 L3.10490733,20.8331111 Z M8.57271972,34.9571272 C8.57271972,35.5274463 8.10868808,35.9914779 7.53829171,35.9914779 L7.07487847,35.9914779 C6.5044821,35.9914779 6.04045046,35.5274463 6.04045046,34.9571272 L6.04045046,32.6875232 L8.57271972,32.6875232 C8.57271972,32.6875232 8.57271972,34.9571272 8.57271972,34.9571272 Z M32.7640501,34.9571272 C32.7640501,35.5274463 32.3000185,35.9914779 31.7296221,35.9914779 L31.2662089,35.9914779 C30.6958125,35.9914779 30.2317809,35.5274463 30.2317809,34.9571272 L30.2317809,32.6875232 L32.7640501,32.6875232 L32.7640501,34.9571272 L32.7640501,34.9571272 Z M37.2585788,20.8331111 L35.6996706,20.8331111 L35.6996706,15.3931267 L37.2585788,15.3931267 L37.2585788,20.8331111 Z"></path>
                        </g>
                    </g>
                </g>
                <g id="bus-(1)-copy-2" transform="translate(80.000000, 30.418666)">
                    <g id="Group" transform="translate(1.896132, 0.379226)">
                        <g>
                            <rect id="Rectangle-path" fill="#FBB03B" x="0.0149036008" y="10.2303929" width="15.2151354" height="5.04731489"></rect>
                            <path d="M15.2300011,1.52926872 C15.2300011,0.692922631 14.5520199,0.0149036008 13.7156359,0.0149036008 L1.5292308,0.0149036008 C0.692884709,0.0149036008 0.0148656782,0.692884709 0.0148656782,1.52926872 L0.0148656782,3.81892446 L15.2300011,3.81892446 L15.2300011,1.52926872 Z" id="Shape" fill="#FBB03B"></path>
                            <rect id="Rectangle-path" fill="#29ABE2" x="0.0149036008" y="3.81892446" width="15.2151354" height="6.4114684"></rect>
                        </g>
                        <rect id="Rectangle-path" fill="#CCCCCC" x="3.27101804" y="1.22706313" width="8.73051419" height="1.36415351"></rect>
                    </g>
                    <g id="Group" transform="translate(2.578740, 15.624131)" fill="#333333">
                        <path d="M12.987559,2.41218382 L12.7602127,2.41218382 C12.2705176,2.41218382 11.8735054,2.01520954 11.8735054,1.52547645 L11.8735054,0.0328030909 L13.8742664,0.0328030909 L13.8742664,1.52547645 C13.8742285,2.01520954 13.4772542,2.41218382 12.987559,2.41218382 Z" id="Shape"></path>
                    </g>
                    <circle id="Oval" fill="#CCCCCC" cx="14.5643827" cy="13.1700807" r="1"></circle>
                    <rect id="Rectangle-path" fill="#FBB03B" x="17.134704" y="7.1725001" width="1.52323902" height="3.42725935"></rect>
                    <g id="Group" fill="#000000">
                        <g id="Shape">
                            <path d="M13.8977026,1.22706313 L5.16715046,1.22706313 C4.95770367,1.22706313 4.78792397,1.39684283 4.78792397,1.60628962 L4.78792397,2.97044313 C4.78792397,3.17988991 4.95770367,3.34966961 5.16715046,3.34966961 L13.8977026,3.34966961 C14.1071114,3.34966961 14.2769291,3.17988991 14.2769291,2.97044313 L14.2769291,1.60628962 C14.2769291,1.39684283 14.1071114,1.22706313 13.8977026,1.22706313 Z M13.5184761,2.59121664 L5.54637694,2.59121664 L5.54637694,1.9855161 L13.5184761,1.9855161 L13.5184761,2.59121664 Z"></path>
                            <path d="M3.39377365,5.98700019 L8.85034976,5.98700019 C9.05979655,5.98700019 9.22957624,5.8172205 9.22957624,5.60777371 C9.22957624,5.39832692 9.05979655,5.22854722 8.85034976,5.22854722 L3.39377365,5.22854722 C3.18432686,5.22854722 3.01454717,5.39832692 3.01454717,5.60777371 C3.01454717,5.8172205 3.18432686,5.98700019 3.39377365,5.98700019 Z"></path>
                            <path d="M10.3963424,5.98700019 L11.0784191,5.98700019 C11.287828,5.98700019 11.4576456,5.8172205 11.4576456,5.60777371 C11.4576456,5.39832692 11.287828,5.22854722 11.0784191,5.22854722 L10.3963424,5.22854722 C10.1869335,5.22854722 10.0171159,5.39832692 10.0171159,5.60777371 C10.0171159,5.8172205 10.1869335,5.98700019 10.3963424,5.98700019 Z"></path>
                            <path d="M14.5643827,14.3681709 C15.2249953,14.3681709 15.762473,13.8307312 15.762473,13.1701186 C15.762473,12.5095061 15.2249953,11.9720284 14.5643827,11.9720284 C13.9037702,11.9720284 13.3663304,12.5094682 13.3663304,13.1701186 C13.3663304,13.8307312 13.9037702,14.3681709 14.5643827,14.3681709 Z M14.5643827,12.7304814 C14.8068222,12.7304814 15.00402,12.9277171 15.00402,13.1701186 C15.00402,13.4125202 14.8068222,13.609718 14.5643827,13.609718 C14.3219812,13.609718 14.1247834,13.4125202 14.1247834,13.1701186 C14.1247834,12.9277171 14.3219812,12.7304814 14.5643827,12.7304814 Z"></path>
                            <path d="M17.50536,1.9084952 C17.50536,0.864370925 16.6559306,0.0149036008 15.6117684,0.0149036008 L3.42540114,0.0149036008 C2.38127686,0.0149036008 1.53180954,0.864370925 1.53180954,1.9084952 L1.53180954,6.79327362 L0.379226484,6.79327362 C0.169779697,6.79327362 0,6.96305332 0,7.1725001 L0,10.5997595 C0,10.8092062 0.169779697,10.9789859 0.379226484,10.9789859 L1.53180954,10.9789859 L1.53180954,15.6569342 C1.53180954,15.866381 1.70158923,16.0361607 1.91103602,16.0361607 L2.20497447,16.0361607 L2.20497447,17.1496076 C2.20497447,17.8476498 2.77286613,18.4155035 3.47090832,18.4155035 L3.69825459,18.4155035 C4.39629678,18.4155035 4.96418844,17.8476119 4.96418844,17.1496076 L4.96418844,16.0361607 L14.073019,16.0361607 L14.073019,17.1496076 C14.073019,17.8476498 14.6409106,18.4155035 15.3389528,18.4155035 L15.5662991,18.4155035 C16.2643413,18.4155035 16.8322329,17.8476119 16.8322329,17.1496076 L16.8322329,16.0361607 L17.1261714,16.0361607 C17.3355803,16.0361607 17.5053979,15.866381 17.5053979,15.6569342 L17.5053979,10.9789859 L18.657943,10.9789859 C18.8673519,10.9789859 19.0371695,10.8092062 19.0371695,10.5997595 L19.0371695,7.1725001 C19.0371695,6.96305332 18.8673519,6.79327362 18.657943,6.79327362 L17.50536,6.79327362 L17.50536,1.9084952 Z M2.2902625,15.2777457 L2.2902625,10.9888837 L16.7469449,10.9888837 L16.7469449,15.2777457 L2.2902625,15.2777457 Z M16.746907,10.2304308 L15.0775899,10.2304308 C15.0574909,10.2196607 15.0363301,10.2102939 15.013842,10.2030886 L10.1939113,8.6570201 C9.99440022,8.59300667 9.78089571,8.70286858 9.71695812,8.90230379 C9.65302054,9.101739 9.7628066,9.31528143 9.96224181,9.37921901 L12.615955,10.2303929 L8.75706004,10.2303929 L3.87334346,8.6570201 C3.67383241,8.59300667 3.46036582,8.70283066 3.39642824,8.90230379 C3.33245273,9.101739 3.44227672,9.31528143 3.64171193,9.37921901 L6.29542509,10.2303929 L2.2902625,10.2303929 L2.2902625,4.57737743 L16.7469449,4.57737743 L16.7469449,10.2304308 L16.746907,10.2304308 Z M2.2902625,1.9084952 C2.2902625,1.28258189 2.79948783,0.773356569 3.42540114,0.773356569 L15.6118063,0.773356569 C16.2377196,0.773356569 16.7469449,1.28258189 16.7469449,1.9084952 L16.7469449,3.81892446 L2.2902625,3.81892446 L2.2902625,1.9084952 Z M1.52323902,10.220533 L0.758452968,10.220533 L0.758452968,7.55172659 L1.52323902,7.55172659 L1.52323902,10.220533 Z M4.20569755,17.1496455 C4.20569755,17.4294388 3.97804789,17.6570885 3.69821667,17.6570885 L3.47087039,17.6570885 C3.19103917,17.6570885 2.96338951,17.4294388 2.96338951,17.1496455 L2.96338951,16.0361986 L4.20569755,16.0361986 C4.20569755,16.0361986 4.20569755,17.1496455 4.20569755,17.1496455 Z M16.0737421,17.1496455 C16.0737421,17.4294388 15.8460924,17.6570885 15.5662612,17.6570885 L15.3389149,17.6570885 C15.0590837,17.6570885 14.831434,17.4294388 14.831434,17.1496455 L14.831434,16.0361986 L16.0737421,16.0361986 L16.0737421,17.1496455 L16.0737421,17.1496455 Z M18.2787165,10.220533 L17.5139305,10.220533 L17.5139305,7.55172659 L18.2787165,7.55172659 L18.2787165,10.220533 Z"></path>
                        </g>
                    </g>
                </g>
                <g id="bus-(1)-copy" transform="translate(200.000000, 40.000000)">
                    <g id="Group" transform="translate(5.049423, 1.009885)">
                        <g>
                            <rect id="Rectangle-path" fill="#FBB03B" x="0.0396884668" y="27.2436582" width="40.518087" height="13.4410598"></rect>
                            <path d="M40.5576745,4.07246084 C40.5576745,1.84526123 38.7522027,0.0396884668 36.5249021,0.0396884668 L4.07235985,0.0396884668 C1.84516024,0.0396884668 0.0395874783,1.84516024 0.0395874783,4.07246084 L0.0395874783,10.1698414 L40.5576745,10.1698414 L40.5576745,4.07246084 Z" id="Shape" fill="#FBB03B"></path>
                            <rect id="Rectangle-path" fill="#29ABE2" x="0.0396884668" y="10.1698414" width="40.518087" height="17.0738168"></rect>
                        </g>
                        <rect id="Rectangle-path" fill="#CCCCCC" x="8.71076005" y="3.26768376" width="23.2494634" height="3.63275706"></rect>
                    </g>
                    <g id="Group" transform="translate(6.867216, 41.607248)" fill="#333333">
                        <path d="M2.98128048,6.42367428 L2.37585463,6.42367428 C1.07179058,6.42367428 0.014542339,5.36652703 0.014542339,4.06236199 L0.014542339,0.0873550223 L5.34259277,0.0873550223 L5.34259277,4.06236199 C5.34249178,5.36652703 4.28534453,6.42367428 2.98128048,6.42367428 Z" id="Shape"></path>
                        <path d="M34.5860246,6.42367428 L33.9805987,6.42367428 C32.6765347,6.42367428 31.6192864,5.36652703 31.6192864,4.06236199 L31.6192864,0.0873550223 L36.9473369,0.0873550223 L36.9473369,4.06236199 C36.9472359,5.36652703 35.8900886,6.42367428 34.5860246,6.42367428 Z" id="Shape"></path>
                    </g>
                    <circle id="Oval" fill="#CCCCCC" cx="11.9110845" cy="35.072082" r="2.18064393"></circle>
                    <circle id="Oval" fill="#CCCCCC" cx="38.7851249" cy="35.072082" r="2.18064393"></circle>
                    <rect id="Rectangle-path" fill="#FBB03B" x="45.6299211" y="19.1004533" width="4.05640368" height="9.12683253"></rect>
                    <g id="Group">
                        <rect id="Rectangle-path" fill="#FBB03B" x="1.00988465" y="19.1004533" width="4.05640368" height="9.12683253"></rect>
                        <g id="Shape" fill="#000000">
                            <path d="M37.0097477,3.26768376 L13.7601833,3.26768376 C13.202424,3.26768376 12.7502987,3.71980912 12.7502987,4.27756841 L12.7502987,7.91032548 C12.7502987,8.46808477 13.202424,8.92021013 13.7601833,8.92021013 L37.0097477,8.92021013 C37.567406,8.92021013 38.0196324,8.46808477 38.0196324,7.91032548 L38.0196324,4.27756841 C38.0196324,3.71980912 37.567406,3.26768376 37.0097477,3.26768376 Z M35.9998631,6.90044083 L14.770068,6.90044083 L14.770068,5.28745306 L35.9998631,5.28745306 L35.9998631,6.90044083 Z"></path>
                            <path d="M9.03765971,15.9434529 L23.568587,15.9434529 C24.1263463,15.9434529 24.5784716,15.4913276 24.5784716,14.9335683 C24.5784716,14.375809 24.1263463,13.9236836 23.568587,13.9236836 L9.03765971,13.9236836 C8.47990042,13.9236836 8.02777506,14.375809 8.02777506,14.9335683 C8.02777506,15.4913276 8.47990042,15.9434529 9.03765971,15.9434529 Z"></path>
                            <path d="M27.6855837,15.9434529 L29.5019623,15.9434529 C30.0596206,15.9434529 30.5118469,15.4913276 30.5118469,14.9335683 C30.5118469,14.375809 30.0596206,13.9236836 29.5019623,13.9236836 L27.6855837,13.9236836 C27.1279254,13.9236836 26.6756991,14.375809 26.6756991,14.9335683 C26.6756991,15.4913276 27.1279254,15.9434529 27.6855837,15.9434529 Z"></path>
                            <path d="M11.9110845,38.2626106 C13.6703036,38.2626106 15.1016131,36.8314021 15.1016131,35.072183 C15.1016131,33.312964 13.6704046,31.8816545 11.9110845,31.8816545 C10.1517645,31.8816545 8.72055593,33.312863 8.72055593,35.072183 C8.72055593,36.8314021 10.1517645,38.2626106 11.9110845,38.2626106 Z M11.9110845,33.9014238 C12.5566028,33.9014238 13.0818438,34.4266648 13.0818438,35.072183 C13.0818438,35.7177013 12.5566028,36.2428413 11.9110845,36.2428413 C11.2655662,36.2428413 10.7403252,35.7177013 10.7403252,35.072183 C10.7403252,34.4266648 11.2655662,33.9014238 11.9110845,33.9014238 Z"></path>
                            <path d="M38.7851249,38.2626106 C40.544344,38.2626106 41.9756535,36.8314021 41.9756535,35.072183 C41.9756535,33.312964 40.544344,31.8816545 38.7851249,31.8816545 C37.0259059,31.8816545 35.5946974,33.312863 35.5946974,35.072183 C35.5946974,36.8314021 37.0259059,38.2626106 38.7851249,38.2626106 Z M38.7851249,33.9014238 C39.4307442,33.9014238 39.9558842,34.4266648 39.9558842,35.072183 C39.9558842,35.7177013 39.4307442,36.2428413 38.7851249,36.2428413 C38.1396067,36.2428413 37.6144667,35.7177013 37.6144667,35.072183 C37.6144667,34.4266648 38.1396067,33.9014238 38.7851249,33.9014238 Z"></path>
                            <path d="M46.6169824,5.08234549 C46.6169824,2.30183008 44.3549418,0.0396884668 41.5743254,0.0396884668 L9.12188409,0.0396884668 C6.34136869,0.0396884668 4.07922707,2.30183008 4.07922707,5.08234549 L4.07922707,18.0905687 L1.00988465,18.0905687 C0.452125358,18.0905687 0,18.542694 0,19.1004533 L0,28.2272859 C0,28.7850452 0.452125358,29.2371705 1.00988465,29.2371705 L4.07922707,29.2371705 L4.07922707,41.6946026 C4.07922707,42.2523619 4.53135243,42.7044873 5.08911172,42.7044873 L5.87187331,42.7044873 L5.87187331,45.6696096 C5.87187331,47.5285043 7.38417558,49.0407055 9.24307025,49.0407055 L9.8484961,49.0407055 C11.7073908,49.0407055 13.219693,47.5284033 13.219693,45.6696096 L13.219693,42.7044873 L37.4766174,42.7044873 L37.4766174,45.6696096 C37.4766174,47.5285043 38.9889197,49.0407055 40.8478143,49.0407055 L41.4532402,49.0407055 C43.3121349,49.0407055 44.8244371,47.5284033 44.8244371,45.6696096 L44.8244371,42.7044873 L45.6071987,42.7044873 C46.164857,42.7044873 46.6170834,42.2523619 46.6170834,41.6946026 L46.6170834,29.2371705 L49.6863248,29.2371705 C50.2439831,29.2371705 50.6962095,28.7850452 50.6962095,28.2272859 L50.6962095,19.1004533 C50.6962095,18.542694 50.2439831,18.0905687 49.6863248,18.0905687 L46.6169824,18.0905687 L46.6169824,5.08234549 Z M6.09899637,40.684819 L6.09899637,29.2635285 L44.5973141,29.2635285 L44.5973141,40.684819 L6.09899637,40.684819 Z M44.5972131,27.2437592 L40.1518018,27.2437592 C40.098278,27.2150785 40.0419264,27.1901343 39.9820402,27.1709465 L27.1465073,23.0537478 C26.615207,22.8832793 26.0466419,23.1758428 25.8763754,23.7069412 C25.7061088,24.2380395 25.9984704,24.8067056 26.5295688,24.9769721 L33.5964386,27.2436582 L23.3201554,27.2436582 L10.3147598,23.0537478 C9.78345953,22.8832793 9.21499546,23.1757419 9.04472891,23.7069412 C8.87436137,24.2380395 9.16682396,24.8067056 9.6979223,24.9769721 L16.7647921,27.2436582 L6.09899637,27.2436582 L6.09899637,12.1896107 L44.5973141,12.1896107 L44.5973141,27.2437592 L44.5972131,27.2437592 Z M6.09899637,5.08234549 C6.09899637,3.41553088 7.45506948,2.05945777 9.12188409,2.05945777 L41.5744263,2.05945777 C43.241241,2.05945777 44.5973141,3.41553088 44.5973141,5.08234549 L44.5973141,10.1698414 L6.09899637,10.1698414 L6.09899637,5.08234549 Z M4.05640368,27.2174012 L2.0197693,27.2174012 L2.0197693,20.110338 L4.05640368,20.110338 L4.05640368,27.2174012 Z M11.1998228,45.6697106 C11.1998228,46.4148035 10.593589,47.0210372 9.84839511,47.0210372 L9.24296926,47.0210372 C8.49777538,47.0210372 7.89154162,46.4148035 7.89154162,45.6697106 L7.89154162,42.7045883 L11.1998228,42.7045883 C11.1998228,42.7045883 11.1998228,45.6697106 11.1998228,45.6697106 Z M42.8045668,45.6697106 C42.8045668,46.4148035 42.1983331,47.0210372 41.4531392,47.0210372 L40.8477134,47.0210372 C40.1025195,47.0210372 39.4962857,46.4148035 39.4962857,45.6697106 L39.4962857,42.7045883 L42.8045668,42.7045883 L42.8045668,45.6697106 L42.8045668,45.6697106 Z M48.6764402,27.2174012 L46.6398058,27.2174012 L46.6398058,20.110338 L48.6764402,20.110338 L48.6764402,27.2174012 Z"></path>
                        </g>
                    </g>
                </g>
                <g id="bus" transform="translate(63.000000, 54.000000)">
                    <path d="M65.9575772,9.07265243 C65.9575772,4.8170481 62.5076741,1.36714507 58.2520698,1.36714507 L1.34060116,1.36714507 L1.34060116,15.0861871 L65.9575772,15.0861871 L65.9575772,9.07265243 Z" id="Shape" fill="#29ABE2"></path>
                    <g id="Group" transform="translate(1.340601, 15.014733)">
                        <path d="M64.616976,0.0714540419 L0,0.0714540419 L0,15.1624673 L6.45150903,15.1624673 C6.45003437,15.1167528 6.44802347,15.0713064 6.44802347,15.0253238 C6.44802347,12.6764565 8.3520793,10.7724006 10.7009466,10.7724006 C13.0498139,10.7724006 14.9538697,12.6764565 14.9538697,15.0253238 C14.9538697,15.0713064 14.9518588,15.1168868 14.9503842,15.1624673 L47.1972045,15.1624673 C47.1957299,15.1167528 47.193719,15.0713064 47.193719,15.0253238 C47.193719,12.6764565 49.0977748,10.7724006 51.4466421,10.7724006 C53.7955094,10.7724006 55.6995652,12.6764565 55.6995652,15.0253238 C55.6995652,15.0713064 55.6975543,15.1168868 55.6960796,15.1624673 L64.616976,15.1624673 L64.616976,0.0714540419 Z" id="Shape" fill="#FBB03B"></path>
                        <g id="Shape" transform="translate(6.434886, 10.724809)" fill="#333333">
                            <path d="M45.0117565,0.0475913413 C42.6628892,0.0475913413 40.7588334,1.95164717 40.7588334,4.30051447 C40.7588334,4.34649709 40.7608443,4.39207753 40.7623189,4.43765797 C40.8349795,6.72284671 42.7090059,8.5534376 45.0117565,8.5534376 C47.3145071,8.5534376 49.1886675,6.72284671 49.2611941,4.43765797 C49.2626687,4.39194347 49.2646796,4.34649709 49.2646796,4.30051447 C49.2646796,1.95164717 47.3606238,0.0475913413 45.0117565,0.0475913413 Z"></path>
                        </g>
                    </g>
                    <g id="Group" fill="#000000">
                        <path d="M67.2981783,9.07265243 C67.2981783,4.08454362 63.2400446,0.0264098429 58.2519358,0.0264098429 L1.34060116,0.0264098429 C0.6003212,0.0264098429 0,0.626596983 0,1.36701101 L0,30.1772003 C0,30.9176143 0.6003212,31.5178014 1.34060116,31.5178014 L6.64763898,31.5178014 C7.29756243,33.8870459 9.46880007,35.6335811 12.0415478,35.6335811 C14.6142954,35.6335811 16.7855331,33.8870459 17.4355906,31.5178014 L47.3934685,31.5178014 C48.043392,33.8870459 50.2146296,35.6335811 52.7873773,35.6335811 C55.360125,35.6335811 57.5313626,33.8870459 58.1814201,31.5178014 L65.9575772,31.5178014 C66.6978571,31.5178014 67.2981783,30.9176143 67.2981783,30.1772003 L67.2981783,9.07265243 Z M2.68120232,2.70761217 L58.2519358,2.70761217 C61.7616296,2.70761217 64.616976,5.56295858 64.616976,9.07265243 L64.616976,13.7455859 L53.9905668,13.7455859 L53.9905668,6.44319731 C53.9905668,5.70278328 53.3902456,5.10259614 52.6499657,5.10259614 C51.9096857,5.10259614 51.3093645,5.70278328 51.3093645,6.44319731 L51.3093645,13.7455859 L40.5459459,13.7455859 L40.5459459,6.44319731 C40.5459459,5.70278328 39.9456247,5.10259614 39.2053447,5.10259614 C38.4650648,5.10259614 37.8647436,5.70278328 37.8647436,6.44319731 L37.8647436,13.7455859 L27.2383344,13.7455859 L27.2383344,6.44319731 C27.2383344,5.70278328 26.6380132,5.10259614 25.8977333,5.10259614 C25.1574533,5.10259614 24.5571321,5.70278328 24.5571321,6.44319731 L24.5571321,13.7455859 L13.6563019,13.7455859 L13.6563019,6.44319731 C13.6563019,5.70278328 13.0559807,5.10259614 12.3157007,5.10259614 C11.5754207,5.10259614 10.9750995,5.70278328 10.9750995,6.44319731 L10.9750995,13.7455859 L2.68120232,13.7455859 L2.68120232,2.70761217 Z M14.8912636,30.6414505 C14.6092012,31.9707906 13.400247,32.9523787 12.0415478,32.9523787 C10.8469381,32.9523787 9.74603639,32.1919898 9.3201274,31.0758052 C8.86459112,29.882134 9.26529681,28.4984995 10.2774507,27.7248386 C11.1874508,27.0292006 12.4580725,26.9366992 13.4582951,27.4964001 C14.5573199,28.111468 15.1534852,29.4054162 14.8912636,30.6414505 Z M55.6369591,30.6414505 C55.3548966,31.9707906 54.1459425,32.9523787 52.7872432,32.9523787 C51.5926335,32.9523787 50.4917319,32.1919898 50.0658229,31.0758052 C49.6102866,29.882134 50.0109923,28.4984995 51.0231462,27.7248386 C51.9331462,27.0292006 53.203768,26.9366992 54.2039906,27.4964001 C55.3030154,28.111468 55.8993148,29.4054162 55.6369591,30.6414505 Z M58.2489864,28.8365991 C57.6967928,26.3290046 55.458257,24.4463984 52.7871092,24.4463984 C50.1159614,24.4463984 47.8775596,26.3288706 47.325366,28.8365991 L17.503291,28.8365991 C16.9510973,26.3290046 14.7125615,24.4463984 12.0414137,24.4463984 C9.37026588,24.4463984 7.13186412,26.3288706 6.5796705,28.8365991 L2.68120232,28.8365991 L2.68120232,26.3044716 L4.08440956,26.3044716 C4.82468952,26.3044716 5.42501072,25.7042845 5.42501072,24.9638705 C5.42501072,24.2234565 4.82468952,23.6232693 4.08440956,23.6232693 L2.68120232,23.6232693 L2.68120232,16.4266542 L64.616976,16.4266542 L64.616976,18.6843606 L63.0766253,18.6843606 C62.3363453,18.6843606 61.7360241,19.2845477 61.7360241,20.0249617 C61.7360241,20.7653758 62.3363453,21.3655629 63.0766253,21.3655629 L64.616976,21.3655629 L64.616976,23.6232693 L60.7442474,23.6232693 C60.0039674,23.6232693 59.4036462,24.2234565 59.4036462,24.9638705 C59.4036462,25.7042845 60.0039674,26.3044716 60.7442474,26.3044716 L64.616976,26.3044716 L64.616976,28.8365991 L58.2489864,28.8365991 Z" id="Shape"></path>
                        <path d="M44.555684,23.6232693 L20.4101165,23.6232693 C19.6698365,23.6232693 19.0695153,24.2234565 19.0695153,24.9638705 C19.0695153,25.7042845 19.6698365,26.3044716 20.4101165,26.3044716 L44.555684,26.3044716 C45.2959639,26.3044716 45.8962851,25.7042845 45.8962851,24.9638705 C45.8962851,24.2234565 45.296098,23.6232693 44.555684,23.6232693 Z" id="Shape"></path>
                        <path d="M62.1162186,12.7225731 C62.8564986,12.7225731 63.4568198,12.122386 63.4568198,11.381972 L63.4568198,9.3241492 C63.4568198,8.58373518 62.8564986,7.98354804 62.1162186,7.98354804 C61.3759386,7.98354804 60.7756174,8.58373518 60.7756174,9.3241492 L60.7756174,11.381972 C60.7756174,12.122386 61.3758046,12.7225731 62.1162186,12.7225731 Z" id="Shape"></path>
                    </g>
                </g>
                <g id="bus-copy-2" transform="translate(303.000000, 3.000000)">
                    <path d="M65.9575772,9.07265243 C65.9575772,4.8170481 62.5076741,1.36714507 58.2520698,1.36714507 L1.34060116,1.36714507 L1.34060116,15.0861871 L65.9575772,15.0861871 L65.9575772,9.07265243 Z" id="Shape" fill="#29ABE2"></path>
                    <g id="Group" transform="translate(1.340601, 15.014733)">
                        <path d="M64.616976,0.0714540419 L0,0.0714540419 L0,15.1624673 L6.45150903,15.1624673 C6.45003437,15.1167528 6.44802347,15.0713064 6.44802347,15.0253238 C6.44802347,12.6764565 8.3520793,10.7724006 10.7009466,10.7724006 C13.0498139,10.7724006 14.9538697,12.6764565 14.9538697,15.0253238 C14.9538697,15.0713064 14.9518588,15.1168868 14.9503842,15.1624673 L47.1972045,15.1624673 C47.1957299,15.1167528 47.193719,15.0713064 47.193719,15.0253238 C47.193719,12.6764565 49.0977748,10.7724006 51.4466421,10.7724006 C53.7955094,10.7724006 55.6995652,12.6764565 55.6995652,15.0253238 C55.6995652,15.0713064 55.6975543,15.1168868 55.6960796,15.1624673 L64.616976,15.1624673 L64.616976,0.0714540419 Z" id="Shape" fill="#FBB03B"></path>
                        <g id="Shape" transform="translate(6.434886, 10.724809)" fill="#333333">
                            <path d="M4.26606102,0.0475913413 C1.91719372,0.0475913413 0.0131378914,1.95164717 0.0131378914,4.30051447 C0.0131378914,4.34649709 0.0151487931,4.39207753 0.0166234544,4.43765797 C0.0892840374,6.72284671 1.9633104,8.5534376 4.26606102,8.5534376 C6.56881163,8.5534376 8.44297206,6.72284671 8.51549858,4.43765797 C8.51697324,4.39194347 8.51898415,4.34649709 8.51898415,4.30051447 C8.51898415,1.95164717 6.61479425,0.0475913413 4.26606102,0.0475913413 Z"></path>
                            <path d="M45.0117565,0.0475913413 C42.6628892,0.0475913413 40.7588334,1.95164717 40.7588334,4.30051447 C40.7588334,4.34649709 40.7608443,4.39207753 40.7623189,4.43765797 C40.8349795,6.72284671 42.7090059,8.5534376 45.0117565,8.5534376 C47.3145071,8.5534376 49.1886675,6.72284671 49.2611941,4.43765797 C49.2626687,4.39194347 49.2646796,4.34649709 49.2646796,4.30051447 C49.2646796,1.95164717 47.3606238,0.0475913413 45.0117565,0.0475913413 Z"></path>
                        </g>
                    </g>
                    <g id="Group" fill="#000000">
                        <path d="M67.2981783,9.07265243 C67.2981783,4.08454362 63.2400446,0.0264098429 58.2519358,0.0264098429 L1.34060116,0.0264098429 C0.6003212,0.0264098429 0,0.626596983 0,1.36701101 L0,30.1772003 C0,30.9176143 0.6003212,31.5178014 1.34060116,31.5178014 L6.64763898,31.5178014 C7.29756243,33.8870459 9.46880007,35.6335811 12.0415478,35.6335811 C14.6142954,35.6335811 16.7855331,33.8870459 17.4355906,31.5178014 L47.3934685,31.5178014 C48.043392,33.8870459 50.2146296,35.6335811 52.7873773,35.6335811 C55.360125,35.6335811 57.5313626,33.8870459 58.1814201,31.5178014 L65.9575772,31.5178014 C66.6978571,31.5178014 67.2981783,30.9176143 67.2981783,30.1772003 L67.2981783,9.07265243 Z M2.68120232,2.70761217 L58.2519358,2.70761217 C61.7616296,2.70761217 64.616976,5.56295858 64.616976,9.07265243 L64.616976,13.7455859 L53.9905668,13.7455859 L53.9905668,6.44319731 C53.9905668,5.70278328 53.3902456,5.10259614 52.6499657,5.10259614 C51.9096857,5.10259614 51.3093645,5.70278328 51.3093645,6.44319731 L51.3093645,13.7455859 L40.5459459,13.7455859 L40.5459459,6.44319731 C40.5459459,5.70278328 39.9456247,5.10259614 39.2053447,5.10259614 C38.4650648,5.10259614 37.8647436,5.70278328 37.8647436,6.44319731 L37.8647436,13.7455859 L27.2383344,13.7455859 L27.2383344,6.44319731 C27.2383344,5.70278328 26.6380132,5.10259614 25.8977333,5.10259614 C25.1574533,5.10259614 24.5571321,5.70278328 24.5571321,6.44319731 L24.5571321,13.7455859 L13.6563019,13.7455859 L13.6563019,6.44319731 C13.6563019,5.70278328 13.0559807,5.10259614 12.3157007,5.10259614 C11.5754207,5.10259614 10.9750995,5.70278328 10.9750995,6.44319731 L10.9750995,13.7455859 L2.68120232,13.7455859 L2.68120232,2.70761217 Z M14.8912636,30.6414505 C14.6092012,31.9707906 13.400247,32.9523787 12.0415478,32.9523787 C10.8469381,32.9523787 9.74603639,32.1919898 9.3201274,31.0758052 C8.86459112,29.882134 9.26529681,28.4984995 10.2774507,27.7248386 C11.1874508,27.0292006 12.4580725,26.9366992 13.4582951,27.4964001 C14.5573199,28.111468 15.1534852,29.4054162 14.8912636,30.6414505 Z M55.6369591,30.6414505 C55.3548966,31.9707906 54.1459425,32.9523787 52.7872432,32.9523787 C51.5926335,32.9523787 50.4917319,32.1919898 50.0658229,31.0758052 C49.6102866,29.882134 50.0109923,28.4984995 51.0231462,27.7248386 C51.9331462,27.0292006 53.203768,26.9366992 54.2039906,27.4964001 C55.3030154,28.111468 55.8993148,29.4054162 55.6369591,30.6414505 Z M58.2489864,28.8365991 C57.6967928,26.3290046 55.458257,24.4463984 52.7871092,24.4463984 C50.1159614,24.4463984 47.8775596,26.3288706 47.325366,28.8365991 L17.503291,28.8365991 C16.9510973,26.3290046 14.7125615,24.4463984 12.0414137,24.4463984 C9.37026588,24.4463984 7.13186412,26.3288706 6.5796705,28.8365991 L2.68120232,28.8365991 L2.68120232,26.3044716 L4.08440956,26.3044716 C4.82468952,26.3044716 5.42501072,25.7042845 5.42501072,24.9638705 C5.42501072,24.2234565 4.82468952,23.6232693 4.08440956,23.6232693 L2.68120232,23.6232693 L2.68120232,16.4266542 L64.616976,16.4266542 L64.616976,18.6843606 L63.0766253,18.6843606 C62.3363453,18.6843606 61.7360241,19.2845477 61.7360241,20.0249617 C61.7360241,20.7653758 62.3363453,21.3655629 63.0766253,21.3655629 L64.616976,21.3655629 L64.616976,23.6232693 L60.7442474,23.6232693 C60.0039674,23.6232693 59.4036462,24.2234565 59.4036462,24.9638705 C59.4036462,25.7042845 60.0039674,26.3044716 60.7442474,26.3044716 L64.616976,26.3044716 L64.616976,28.8365991 L58.2489864,28.8365991 Z" id="Shape"></path>
                        <path d="M44.555684,23.6232693 L20.4101165,23.6232693 C19.6698365,23.6232693 19.0695153,24.2234565 19.0695153,24.9638705 C19.0695153,25.7042845 19.6698365,26.3044716 20.4101165,26.3044716 L44.555684,26.3044716 C45.2959639,26.3044716 45.8962851,25.7042845 45.8962851,24.9638705 C45.8962851,24.2234565 45.296098,23.6232693 44.555684,23.6232693 Z" id="Shape"></path>
                        <path d="M62.1162186,12.7225731 C62.8564986,12.7225731 63.4568198,12.122386 63.4568198,11.381972 L63.4568198,9.3241492 C63.4568198,8.58373518 62.8564986,7.98354804 62.1162186,7.98354804 C61.3759386,7.98354804 60.7756174,8.58373518 60.7756174,9.3241492 L60.7756174,11.381972 C60.7756174,12.122386 61.3758046,12.7225731 62.1162186,12.7225731 Z" id="Shape"></path>
                    </g>
                </g>
                <g id="bus-copy" transform="translate(183.000000, 0.000000)">
                    <path d="M65.9575772,9.07265243 C65.9575772,4.8170481 62.5076741,1.36714507 58.2520698,1.36714507 L1.34060116,1.36714507 L1.34060116,15.0861871 L65.9575772,15.0861871 L65.9575772,9.07265243 Z" id="Shape" fill="#29ABE2"></path>
                    <g id="Group" transform="translate(1.340601, 15.014733)">
                        <path d="M64.616976,0.0714540419 L0,0.0714540419 L0,15.1624673 L6.45150903,15.1624673 C6.45003437,15.1167528 6.44802347,15.0713064 6.44802347,15.0253238 C6.44802347,12.6764565 8.3520793,10.7724006 10.7009466,10.7724006 C13.0498139,10.7724006 14.9538697,12.6764565 14.9538697,15.0253238 C14.9538697,15.0713064 14.9518588,15.1168868 14.9503842,15.1624673 L47.1972045,15.1624673 C47.1957299,15.1167528 47.193719,15.0713064 47.193719,15.0253238 C47.193719,12.6764565 49.0977748,10.7724006 51.4466421,10.7724006 C53.7955094,10.7724006 55.6995652,12.6764565 55.6995652,15.0253238 C55.6995652,15.0713064 55.6975543,15.1168868 55.6960796,15.1624673 L64.616976,15.1624673 L64.616976,0.0714540419 Z" id="Shape" fill="#FBB03B"></path>
                        <g id="Shape" transform="translate(6.434886, 10.724809)" fill="#333333">
                            <path d="M4.26606102,0.0475913413 C1.91719372,0.0475913413 0.0131378914,1.95164717 0.0131378914,4.30051447 C0.0131378914,4.34649709 0.0151487931,4.39207753 0.0166234544,4.43765797 C0.0892840374,6.72284671 1.9633104,8.5534376 4.26606102,8.5534376 C6.56881163,8.5534376 8.44297206,6.72284671 8.51549858,4.43765797 C8.51697324,4.39194347 8.51898415,4.34649709 8.51898415,4.30051447 C8.51898415,1.95164717 6.61479425,0.0475913413 4.26606102,0.0475913413 Z"></path>
                            <path d="M45.0117565,0.0475913413 C42.6628892,0.0475913413 40.7588334,1.95164717 40.7588334,4.30051447 C40.7588334,4.34649709 40.7608443,4.39207753 40.7623189,4.43765797 C40.8349795,6.72284671 42.7090059,8.5534376 45.0117565,8.5534376 C47.3145071,8.5534376 49.1886675,6.72284671 49.2611941,4.43765797 C49.2626687,4.39194347 49.2646796,4.34649709 49.2646796,4.30051447 C49.2646796,1.95164717 47.3606238,0.0475913413 45.0117565,0.0475913413 Z"></path>
                        </g>
                    </g>
                    <g id="Group" fill="#000000">
                        <path d="M67.2981783,9.07265243 C67.2981783,4.08454362 63.2400446,0.0264098429 58.2519358,0.0264098429 L1.34060116,0.0264098429 C0.6003212,0.0264098429 0,0.626596983 0,1.36701101 L0,30.1772003 C0,30.9176143 0.6003212,31.5178014 1.34060116,31.5178014 L6.64763898,31.5178014 C7.29756243,33.8870459 9.46880007,35.6335811 12.0415478,35.6335811 C14.6142954,35.6335811 16.7855331,33.8870459 17.4355906,31.5178014 L47.3934685,31.5178014 C48.043392,33.8870459 50.2146296,35.6335811 52.7873773,35.6335811 C55.360125,35.6335811 57.5313626,33.8870459 58.1814201,31.5178014 L65.9575772,31.5178014 C66.6978571,31.5178014 67.2981783,30.9176143 67.2981783,30.1772003 L67.2981783,9.07265243 Z M2.68120232,2.70761217 L58.2519358,2.70761217 C61.7616296,2.70761217 64.616976,5.56295858 64.616976,9.07265243 L64.616976,13.7455859 L53.9905668,13.7455859 L53.9905668,6.44319731 C53.9905668,5.70278328 53.3902456,5.10259614 52.6499657,5.10259614 C51.9096857,5.10259614 51.3093645,5.70278328 51.3093645,6.44319731 L51.3093645,13.7455859 L40.5459459,13.7455859 L40.5459459,6.44319731 C40.5459459,5.70278328 39.9456247,5.10259614 39.2053447,5.10259614 C38.4650648,5.10259614 37.8647436,5.70278328 37.8647436,6.44319731 L37.8647436,13.7455859 L27.2383344,13.7455859 L27.2383344,6.44319731 C27.2383344,5.70278328 26.6380132,5.10259614 25.8977333,5.10259614 C25.1574533,5.10259614 24.5571321,5.70278328 24.5571321,6.44319731 L24.5571321,13.7455859 L13.6563019,13.7455859 L13.6563019,6.44319731 C13.6563019,5.70278328 13.0559807,5.10259614 12.3157007,5.10259614 C11.5754207,5.10259614 10.9750995,5.70278328 10.9750995,6.44319731 L10.9750995,13.7455859 L2.68120232,13.7455859 L2.68120232,2.70761217 Z M14.8912636,30.6414505 C14.6092012,31.9707906 13.400247,32.9523787 12.0415478,32.9523787 C10.8469381,32.9523787 9.74603639,32.1919898 9.3201274,31.0758052 C8.86459112,29.882134 9.26529681,28.4984995 10.2774507,27.7248386 C11.1874508,27.0292006 12.4580725,26.9366992 13.4582951,27.4964001 C14.5573199,28.111468 15.1534852,29.4054162 14.8912636,30.6414505 Z M55.6369591,30.6414505 C55.3548966,31.9707906 54.1459425,32.9523787 52.7872432,32.9523787 C51.5926335,32.9523787 50.4917319,32.1919898 50.0658229,31.0758052 C49.6102866,29.882134 50.0109923,28.4984995 51.0231462,27.7248386 C51.9331462,27.0292006 53.203768,26.9366992 54.2039906,27.4964001 C55.3030154,28.111468 55.8993148,29.4054162 55.6369591,30.6414505 Z M58.2489864,28.8365991 C57.6967928,26.3290046 55.458257,24.4463984 52.7871092,24.4463984 C50.1159614,24.4463984 47.8775596,26.3288706 47.325366,28.8365991 L17.503291,28.8365991 C16.9510973,26.3290046 14.7125615,24.4463984 12.0414137,24.4463984 C9.37026588,24.4463984 7.13186412,26.3288706 6.5796705,28.8365991 L2.68120232,28.8365991 L2.68120232,26.3044716 L4.08440956,26.3044716 C4.82468952,26.3044716 5.42501072,25.7042845 5.42501072,24.9638705 C5.42501072,24.2234565 4.82468952,23.6232693 4.08440956,23.6232693 L2.68120232,23.6232693 L2.68120232,16.4266542 L64.616976,16.4266542 L64.616976,18.6843606 L63.0766253,18.6843606 C62.3363453,18.6843606 61.7360241,19.2845477 61.7360241,20.0249617 C61.7360241,20.7653758 62.3363453,21.3655629 63.0766253,21.3655629 L64.616976,21.3655629 L64.616976,23.6232693 L60.7442474,23.6232693 C60.0039674,23.6232693 59.4036462,24.2234565 59.4036462,24.9638705 C59.4036462,25.7042845 60.0039674,26.3044716 60.7442474,26.3044716 L64.616976,26.3044716 L64.616976,28.8365991 L58.2489864,28.8365991 Z" id="Shape"></path>
                        <path d="M44.555684,23.6232693 L20.4101165,23.6232693 C19.6698365,23.6232693 19.0695153,24.2234565 19.0695153,24.9638705 C19.0695153,25.7042845 19.6698365,26.3044716 20.4101165,26.3044716 L44.555684,26.3044716 C45.2959639,26.3044716 45.8962851,25.7042845 45.8962851,24.9638705 C45.8962851,24.2234565 45.296098,23.6232693 44.555684,23.6232693 Z" id="Shape"></path>
                    </g>
                </g>
                <g id="helicopter" transform="translate(97.000000, 6.000000)">
                    <g id="Group" transform="translate(1.068403, 1.068403)">
                        <path d="M44.4025025,17.7387996 C43.3103811,10.9380948 37.4160025,5.74245171 30.3072772,5.74245171 L29.6601456,5.74245171 L29.6601456,17.7387996 L44.4025025,17.7387996 Z" id="Shape" fill="#29ABE2"></path>
                        <path d="M44.4025025,17.7387996 L29.6601456,17.7387996 L29.6601456,5.74255855 L23.3313544,5.74255855 L20.4030758,5.74255855 L7.36781299,5.74255855 L7.36781299,3.68801984 C7.36781299,1.69256382 5.75014421,0.075001881 3.75479502,0.075001881 L0,0.075001881 L0,5.74255855 L0,7.44281487 L0,8.29294303 L9.69960224,10.4787884 C12.0636573,11.0114941 14.0910585,12.5215747 15.2785883,14.633914 L19.0635123,21.366882 C19.8909903,22.8389275 21.4484012,23.7500615 23.1371187,23.7500615 L44.584772,23.7500615 L44.584772,20.0199465 C44.5846652,19.2434313 44.5217362,18.4816601 44.4025025,17.7387996 Z" id="Shape" fill="#FBB03B"></path>
                    </g>
                    <g id="Group" fill="#000000">
                        <path d="M37.4170709,13.1211624 C38.3714752,13.8836815 39.1679695,14.8035764 39.7844379,15.8553122 C39.9832677,16.1946369 40.3404348,16.3836374 40.7072175,16.3836374 C40.8907691,16.3836374 41.0766712,16.3363071 41.2464404,16.2368388 C41.7555344,15.9385408 41.9262652,15.2839303 41.6279671,14.7748364 C40.8785893,13.4963855 39.9106163,12.3783019 38.750865,11.4516761 C38.2898492,11.0835045 37.6176101,11.1585063 37.2492248,11.6195222 C36.8808395,12.080538 36.956055,12.7528839 37.4170709,13.1211624 Z" id="Shape"></path>
                        <path d="M33.7106745,11.2729323 C34.1019236,11.372828 34.4908223,11.4982585 34.8667932,11.6459117 C34.9950016,11.6962335 35.1270562,11.7200589 35.2568671,11.7200589 C35.6833736,11.7200589 36.0863751,11.4628943 36.251657,11.0417299 C36.4672607,10.492464 36.1967411,9.87246982 35.6474752,9.65686612 C35.1896646,9.47716076 34.7159348,9.32437915 34.2394271,9.20268806 C33.667511,9.05674423 33.0857657,9.40173152 32.9398218,9.97343389 C32.793878,10.5451363 33.1389721,11.1268816 33.7106745,11.2729323 Z" id="Shape"></path>
                        <path d="M15.4156644,16.2259411 L19.2004815,22.9588023 C20.2156779,24.7649373 22.1334611,25.8868672 24.2054148,25.8868672 L24.2673821,25.8868672 L22.2766271,27.8776222 C21.8594157,28.2948336 21.8594157,28.9713462 22.2766271,29.3886644 C22.4852861,29.5973235 22.7586904,29.7015996 23.0320947,29.7015996 C23.305499,29.7015996 23.5790102,29.5973235 23.7875624,29.3886644 L27.2893596,25.8868672 L41.3618279,25.8868672 L39.3710729,27.8776222 C38.9538616,28.2948336 38.9538616,28.9713462 39.3710729,29.3886644 C39.579732,29.5973235 39.8531362,29.7015996 40.1265405,29.7015996 C40.3999448,29.7015996 40.673456,29.5973235 40.8820082,29.3886644 L44.3838054,25.8868672 L45.653068,25.8868672 C46.2431469,25.8868672 46.7214709,25.4085432 46.7214709,24.8184643 L46.7214709,21.0883494 C46.7214709,20.2709144 46.6556573,19.4464279 46.5257395,18.6378606 C46.5257395,18.6377538 46.5257395,18.6376469 46.5257395,18.6376469 C45.9537166,15.0762328 44.1249314,11.8129031 41.3761445,9.44884808 C38.5972287,7.05883088 35.0456439,5.74266539 31.37568,5.74266539 L30.7285484,5.74266539 L9.50461871,5.74266539 L9.50461871,4.75663639 C9.50461871,2.17526823 7.40456604,0.0752155616 4.82319789,0.0752155616 L1.06840286,0.0752155616 C0.478323962,0.0752155616 0,0.553539524 0,1.14361842 L0,9.36155957 C0,9.86114475 0.346162528,10.2940616 0.833567914,10.4037866 L10.5331701,12.589632 C12.5984997,13.0548146 14.3781384,14.3802752 15.4156644,16.2259411 Z M44.157304,17.7387996 L31.7969513,17.7387996 L31.7969513,7.88577469 C37.7105611,8.06868526 42.6963699,12.0896194 44.157304,17.7387996 Z M2.13680573,8.50694412 L2.13680573,2.21180761 L4.82319789,2.21180761 C6.22633137,2.21180761 7.36781299,3.35339607 7.36781299,4.75642271 L7.36781299,6.81085457 C7.36781299,7.40093347 7.84613695,7.87925744 8.43621585,7.87925744 L29.6601456,7.87925744 L29.6601456,18.8072024 C29.6601456,19.3972813 30.1384695,19.8756053 30.7285484,19.8756053 L44.5291082,19.8756053 C44.566075,20.2793547 44.5846652,20.6848136 44.5846652,21.0882426 L44.5846652,23.7499546 L24.2054148,23.7499546 C22.9046343,23.7499546 21.7006511,23.0455566 21.0631351,21.9116606 L17.2783179,15.1786926 C15.9448443,12.8066246 13.6575006,11.1030562 11.00284,10.5047506 L2.13680573,8.50694412 Z" id="Shape"></path>
                        <path d="M53.3208885,27.554003 C52.9036772,27.1368985 52.2272714,27.1366848 51.8099532,27.554003 L51.3161374,28.047712 C49.6091502,29.7546992 47.339542,30.6947869 44.9254857,30.6947869 L12.2028701,30.6947869 C11.6127912,30.6947869 11.1344673,31.1731109 11.1344673,31.7631898 C11.1344673,32.3532687 11.6127912,32.8315926 12.2028701,32.8315926 L44.9254857,32.8315926 C47.9103896,32.8315926 50.7166566,31.6692772 52.8271796,29.5586473 L53.3208885,29.0649383 C53.7380999,28.6478339 53.7382067,27.9713212 53.3208885,27.554003 Z" id="Shape"></path>
                    </g>
                </g>
                <g id="tram" transform="translate(147.000000, 46.097274)">
                    <g id="Group" transform="translate(3.781287, 7.142431)">
                        <rect id="Rectangle-path" fill="#CCCCCC" x="0.0578957033" y="0.00932717427" width="28.957767" height="29.0485179"></rect>
                        <rect id="Rectangle-path" fill="#29ABE2" x="3.18972554" y="3.18644843" width="22.6941914" height="11.5286395"></rect>
                        <g id="Oval" transform="translate(3.109058, 21.679378)" fill="#FBB03B">
                            <circle cx="1.94156476" cy="1.8735016" r="1.86089731"></circle>
                            <circle cx="20.9139615" cy="1.8735016" r="1.86089731"></circle>
                        </g>
                        <polygon id="Shape" fill="#603813" points="25.7859396 31.2972912 3.28770289 31.2972912 0.390732976 34.1943452 28.6828255 34.1943452"></polygon>
                    </g>
                    <g id="Group" fill="#000000">
                        <path d="M6.97101241,22.6978046 L29.6651198,22.6978046 C30.1291257,22.6978046 30.5054057,22.3216086 30.5054057,21.8575186 L30.5054057,10.3288792 C30.5054057,9.86478923 30.1291257,9.4885932 29.6651198,9.4885932 L6.97101241,9.4885932 C6.50692246,9.4885932 6.13072644,9.86478923 6.13072644,10.3288792 L6.13072644,21.8575186 C6.13072644,22.3216086 6.50700649,22.6978046 6.97101241,22.6978046 Z M7.81129838,11.1691651 L28.8248338,11.1691651 L28.8248338,21.0172327 L7.81129838,21.0172327 L7.81129838,11.1691651 Z" id="Shape"></path>
                        <path d="M8.83190971,33.3964936 C10.3214006,33.3964936 11.533093,32.1848013 11.533093,30.6953104 C11.533093,29.2058195 10.3213166,27.9941271 8.83190971,27.9941271 C7.34250283,27.9941271 6.13072644,29.2059035 6.13072644,30.6953104 C6.13072644,32.1847172 7.3424188,33.3964936 8.83190971,33.3964936 Z M8.83190971,29.674699 C9.39473326,29.674699 9.85252105,30.1325708 9.85252105,30.6953104 C9.85252105,31.2580499 9.39464923,31.7159217 8.83190971,31.7159217 C8.2691702,31.7159217 7.81129838,31.2580499 7.81129838,30.6953104 C7.81129838,30.1325708 8.2691702,29.674699 8.83190971,29.674699 Z" id="Shape"></path>
                        <path d="M27.8043065,27.9941271 C26.3148996,27.9941271 25.1031232,29.2059035 25.1031232,30.6953104 C25.1031232,32.1847172 26.3148996,33.3964936 27.8043065,33.3964936 C29.2937974,33.3964936 30.5054898,32.1848013 30.5054898,30.6953104 C30.5054898,29.2058195 29.2937134,27.9941271 27.8043065,27.9941271 Z M27.8043065,31.7159217 C27.241567,31.7159217 26.7836951,31.2580499 26.7836951,30.6953104 C26.7836951,30.1324868 27.2414829,29.674699 27.8043065,29.674699 C28.36713,29.674699 28.8249178,30.1325708 28.8249178,30.6953104 C28.8248338,31.2581339 28.366962,31.7159217 27.8043065,31.7159217 Z" id="Shape"></path>
                        <path d="M25.6838448,24.9522078 C25.6838448,24.4881179 25.3075648,24.1119219 24.8435589,24.1119219 L7.08436698,24.1119219 C6.62027704,24.1119219 6.24408101,24.4881179 6.24408101,24.9522078 C6.24408101,25.4162978 6.62027704,25.7924938 7.08436698,25.7924938 L24.8434748,25.7924938 C25.3075648,25.7924938 25.6838448,25.4162978 25.6838448,24.9522078 Z" id="Shape"></path>
                        <path d="M29.4691651,25.7924938 C29.933171,25.7924938 30.309451,25.4162978 30.309451,24.9522078 C30.309451,24.4881179 29.933171,24.1119219 29.4691651,24.1119219 L27.6519626,24.1119219 C27.1879567,24.1119219 26.8116767,24.4881179 26.8116767,24.9522078 C26.8116767,25.4162978 27.1879567,25.7924938 27.6519626,25.7924938 L29.4691651,25.7924938 Z" id="Shape"></path>
                        <path d="M14.5367792,12.2681752 L9.8285729,12.2681752 C9.36448296,12.2681752 8.98828693,12.6443712 8.98828693,13.1084611 C8.98828693,13.5725511 9.36448296,13.9487471 9.8285729,13.9487471 L14.5367792,13.9487471 C15.0008692,13.9487471 15.3770652,13.5725511 15.3770652,13.1084611 C15.3770652,12.6443712 15.0008692,12.2681752 14.5367792,12.2681752 Z" id="Shape"></path>
                        <path d="M17.8138945,12.2681752 L17.2230894,12.2681752 C16.7589995,12.2681752 16.3828035,12.6443712 16.3828035,13.1084611 C16.3828035,13.5725511 16.7589995,13.9487471 17.2230894,13.9487471 L17.8138945,13.9487471 C18.2779844,13.9487471 18.6541805,13.5725511 18.6541805,13.1084611 C18.6541805,12.6443712 18.2779844,12.2681752 17.8138945,12.2681752 Z" id="Shape"></path>
                        <path d="M35.7131621,0 L4.29823079,0 C3.83414085,0 3.45794482,0.376196029 3.45794482,0.84028597 C3.45794482,1.30437591 3.83414085,1.68057194 4.29823079,1.68057194 L26.348427,1.68057194 L26.348427,6.31138792 L10.2877892,6.31138792 L10.2877892,3.95581426 C10.2877892,3.49172432 9.91159316,3.11552829 9.44750322,3.11552829 C8.98341327,3.11552829 8.60721725,3.49172432 8.60721725,3.95581426 L8.60721725,6.31138792 L3.83918257,6.31138792 C3.37509263,6.31138792 2.9988966,6.68758395 2.9988966,7.15167389 L2.9988966,36.2001918 C2.9988966,36.6642818 3.37509263,37.0404778 3.83918257,37.0404778 L7.27183478,37.0404778 L3.97749364,40.3348189 C3.95488995,40.3574226 3.93413488,40.3812867 3.91464025,40.405655 L3.57785363,40.7424416 C3.33753184,40.9827634 3.26560336,41.3441704 3.39567963,41.6581853 C3.5257559,41.9722002 3.83212417,42.1768938 4.17201984,42.1768938 L32.386638,42.1768938 C32.4168042,42.1801709 32.4471386,42.1821876 32.4774729,42.1821876 C32.6925861,42.1821876 32.9075312,42.1001757 33.0716391,41.9360679 C33.3997708,41.6079362 33.3997708,41.0758671 33.0716391,40.7476514 L29.3642974,37.0403097 L32.7969496,37.0403097 C33.2609555,37.0403097 33.6372356,36.6641137 33.6372356,36.2000238 L33.6372356,7.15167389 C33.6372356,6.68758395 33.2609555,6.31138792 32.7969496,6.31138792 L28.028999,6.31138792 L28.028999,1.68057194 L35.713078,1.68057194 C36.1770839,1.68057194 36.553364,1.30437591 36.553364,0.84028597 C36.553364,0.376196029 36.177168,0 35.7131621,0 Z M6.20063823,40.4964899 L7.41712023,39.2800079 L29.219096,39.2800079 L30.435578,40.4964899 L6.20063823,40.4964899 Z M27.5465067,37.599436 L9.08962542,37.599436 L9.64849962,37.0405618 L26.9874645,37.0405618 L27.5465067,37.599436 Z M31.9566636,35.3599899 L4.67946854,35.3599899 L4.67946854,7.99195986 L31.9566636,7.99195986 L31.9566636,35.3599899 L31.9566636,35.3599899 Z" id="Shape"></path>
                        <path d="M1.44235087,0 L0.923138166,0 C0.459048225,0 0.0828521966,0.376196029 0.0828521966,0.84028597 C0.0828521966,1.30437591 0.459048225,1.68057194 0.923138166,1.68057194 L1.44235087,1.68057194 C1.90644081,1.68057194 2.28263684,1.30437591 2.28263684,0.84028597 C2.28263684,0.376196029 1.90635678,0 1.44235087,0 Z" id="Shape"></path>
                    </g>
                </g>
                <g id="tram-copy" transform="translate(257.000000, 54.000000)">
                    <g id="Group" transform="translate(4.671223, 8.823421)">
                        <rect id="Rectangle-path" fill="#CCCCCC" x="0.0715216158" y="0.0115223503" width="35.7730569" height="35.8851662"></rect>
                        <rect id="Rectangle-path" fill="#29ABE2" x="3.94043619" y="3.9363878" width="28.0353315" height="14.2419364"></rect>
                    </g>
                    <g id="Group" fill="#000000">
                        <path d="M8.61165928,28.0397951 L36.646887,28.0397951 C37.220098,28.0397951 37.6849366,27.5750603 37.6849366,27.0017456 L37.6849366,12.7598092 C37.6849366,12.1864944 37.220098,11.7217596 36.646887,11.7217596 L8.61165928,11.7217596 C8.0383445,11.7217596 7.5736097,12.1864944 7.5736097,12.7598092 L7.5736097,27.0017456 C7.5736097,27.5750603 8.0384483,28.0397951 8.61165928,28.0397951 Z M9.64970886,13.7978588 L35.6088374,13.7978588 L35.6088374,25.963696 L9.64970886,25.963696 L9.64970886,13.7978588 Z" id="Shape"></path>
                        <path d="M10.9105239,41.2564499 C12.7505705,41.2564499 14.247438,39.7595825 14.247438,37.9195358 C14.247438,36.0794891 12.7504667,34.5826216 10.9105239,34.5826216 C9.070581,34.5826216 7.5736097,36.0795929 7.5736097,37.9195358 C7.5736097,39.7594787 9.07047719,41.2564499 10.9105239,41.2564499 Z M10.9105239,36.6587208 C11.6058095,36.6587208 12.1713389,37.224354 12.1713389,37.9195358 C12.1713389,38.6147176 11.6057057,39.1803508 10.9105239,39.1803508 C10.2153421,39.1803508 9.64970886,38.6147176 9.64970886,37.9195358 C9.64970886,37.224354 10.2153421,36.6587208 10.9105239,36.6587208 Z" id="Shape"></path>
                        <path d="M34.3481262,34.5826216 C32.5081833,34.5826216 31.0112121,36.0795929 31.0112121,37.9195358 C31.0112121,39.7594787 32.5081833,41.2564499 34.3481262,41.2564499 C36.1881729,41.2564499 37.6850404,39.7595825 37.6850404,37.9195358 C37.6850404,36.0794891 36.1880691,34.5826216 34.3481262,34.5826216 Z M34.3481262,39.1803508 C33.6529444,39.1803508 33.0873112,38.6147176 33.0873112,37.9195358 C33.0873112,37.2242502 33.6528406,36.6587208 34.3481262,36.6587208 C35.0434118,36.6587208 35.6089412,37.224354 35.6089412,37.9195358 C35.6088374,38.6148214 35.0432042,39.1803508 34.3481262,39.1803508 Z" id="Shape"></path>
                        <path d="M31.7286081,30.8247783 C31.7286081,30.2514636 31.2637695,29.7867288 30.6905585,29.7867288 L8.75169217,29.7867288 C8.17837739,29.7867288 7.71364259,30.2514636 7.71364259,30.8247783 C7.71364259,31.3980931 8.17837739,31.8628279 8.75169217,31.8628279 L30.6904547,31.8628279 C31.2637695,31.8628279 31.7286081,31.3980931 31.7286081,30.8247783 Z" id="Shape"></path>
                        <path d="M36.4048138,31.8628279 C36.9780248,31.8628279 37.4428634,31.3980931 37.4428634,30.8247783 C37.4428634,30.2514636 36.9780248,29.7867288 36.4048138,29.7867288 L34.1599278,29.7867288 C33.5867169,29.7867288 33.1218783,30.2514636 33.1218783,30.8247783 C33.1218783,31.3980931 33.5867169,31.8628279 34.1599278,31.8628279 L36.4048138,31.8628279 Z" id="Shape"></path>
                        <path d="M17.9580501,15.1555238 L12.1417545,15.1555238 C11.5684397,15.1555238 11.1037049,15.6202586 11.1037049,16.1935734 C11.1037049,16.7668882 11.5684397,17.231623 12.1417545,17.231623 L17.9580501,17.231623 C18.5313648,17.231623 18.9960996,16.7668882 18.9960996,16.1935734 C18.9960996,15.6202586 18.5313648,15.1555238 17.9580501,15.1555238 Z" id="Shape"></path>
                        <path d="M22.0064434,15.1555238 L21.2765907,15.1555238 C20.703276,15.1555238 20.2385412,15.6202586 20.2385412,16.1935734 C20.2385412,16.7668882 20.703276,17.231623 21.2765907,17.231623 L22.0064434,17.231623 C22.5797582,17.231623 23.044493,16.7668882 23.044493,16.1935734 C23.044493,15.6202586 22.5797582,15.1555238 22.0064434,15.1555238 Z" id="Shape"></path>
                        <path d="M44.1183526,0 L5.30983119,0 C4.73651641,0 4.27178161,0.464734795 4.27178161,1.03804958 C4.27178161,1.61136436 4.73651641,2.07609915 5.30983119,2.07609915 L32.5496015,2.07609915 L32.5496015,7.79679036 L12.7090486,7.79679036 L12.7090486,4.88682599 C12.7090486,4.31351121 12.2443138,3.84877641 11.670999,3.84877641 C11.0976842,3.84877641 10.6329494,4.31351121 10.6329494,4.88682599 L10.6329494,7.79679036 L4.74274471,7.79679036 C4.16942993,7.79679036 3.70469513,8.26152516 3.70469513,8.83483994 L3.70469513,44.7200062 C3.70469513,45.2933209 4.16942993,45.7580557 4.74274471,45.7580557 L8.98328103,45.7580557 L4.91360767,49.8277291 C4.88568413,49.8556526 4.86004431,49.8851332 4.83596156,49.9152367 L4.41991129,50.3312869 C4.12302911,50.6281691 4.03417207,51.0746343 4.19486214,51.4625534 C4.35555221,51.8504725 4.73402509,52.1033414 5.15391614,52.1033414 L40.008922,52.1033414 C40.0461879,52.1073898 40.0836615,52.1098811 40.1211351,52.1098811 C40.3868758,52.1098811 40.6524089,52.0085675 40.85514,51.8058364 C41.2604983,51.400478 41.2604983,50.743185 40.85514,50.3377229 L36.2752653,45.7578481 L40.5158016,45.7578481 C41.0890126,45.7578481 41.5538512,45.2931133 41.5538512,44.7197986 L41.5538512,8.83483994 C41.5538512,8.26152516 41.0890126,7.79679036 40.5158016,7.79679036 L34.6257007,7.79679036 L34.6257007,2.07609915 L44.1182488,2.07609915 C44.6914598,2.07609915 45.1562984,1.61136436 45.1562984,1.03804958 C45.1562984,0.464734795 44.6915636,0 44.1183526,0 Z M7.65997543,50.0274498 L9.1627598,48.5246655 L36.0958903,48.5246655 L37.5986747,50.0274498 L7.65997543,50.0274498 Z M34.0296526,46.4485663 L11.2288937,46.4485663 L11.9193004,45.7581595 L33.3390382,45.7581595 L34.0296526,46.4485663 Z M39.477752,43.6820604 L5.78079428,43.6820604 L5.78079428,9.87288951 L39.477752,9.87288951 L39.477752,43.6820604 L39.477752,43.6820604 Z" id="Shape"></path>
                        <path d="M1.7818121,0 L1.14040126,0 C0.567086483,0 0.102351688,0.464734795 0.102351688,1.03804958 C0.102351688,1.61136436 0.567086483,2.07609915 1.14040126,2.07609915 L1.7818121,2.07609915 C2.35512688,2.07609915 2.81986167,1.61136436 2.81986167,1.03804958 C2.81986167,0.464734795 2.35502307,0 1.7818121,0 Z" id="Shape"></path>
                    </g>
                </g>
            </g>
            <rect id="Rectangle" fill="#FFFFFF" transform="translate(151.888548, 165.490929) rotate(31.000000) translate(-151.888548, -165.490929) " x="56.2064968" y="29.920115" width="191.364102" height="271.141628"></rect>
            <rect id="Rectangle-Copy" fill="#FFFFFF" transform="translate(452.364102, 213.641628) rotate(31.000000) translate(-452.364102, -213.641628) " x="400.364102" y="111.141628" width="104" height="205"></rect>
        </g>
        <g id="Artboard"></g>
    </g>
</svg>