<?xml version="1.0" encoding="UTF-8"?>
<svg width="278px" height="84px" viewBox="0 0 278 84" version="1.1" xmlns="http://www.w3.org/2000/svg" xmlns:xlink="http://www.w3.org/1999/xlink">
    <!-- Generator: Sketch 45.2 (43514) - http://www.bohemiancoding.com/sketch -->
    <title>Artboard</title>
    <desc>Created with Sketch.</desc>
    <defs></defs>
    <g id="Page-1" stroke="none" stroke-width="1" fill="none" fill-rule="evenodd">
        <g id="Group-2" transform="translate(-7.000000, -5.000000)" fill-rule="nonzero">
            <g id="bg">
                <g id="airplane-copy" transform="translate(181.000000, 12.000000)">
                    <path d="M31.1480183,14.6413755 C30.9943993,14.6312041 30.846913,14.6280629 30.7074293,14.6327747 L23.2263166,14.9040387 L16.4323013,2.54795205 C15.8327084,1.45743635 14.6869228,0.779912059 13.4424141,0.779912059 L11.9471339,0.779912059 L16.1566995,15.1604194 L5.14608832,16.1546802 L3.30475394,10.7697868 L0.747901859,10.7697868 L1.86975465,18.3983857 L0.747901859,26.0269847 L3.30475394,26.0269847 L5.14608832,20.6420913 L16.1566995,21.636352 L11.9471339,36.0168594 L13.4424141,36.0168594 C14.6869228,36.0168594 15.8326336,35.3393351 16.4323013,34.2488194 L23.2263166,21.8927328 L30.7074293,22.1639968 C30.8606744,22.1691573 31.0235674,22.1648195 31.1935655,22.1521052 C31.3500266,20.7023722 31.4866683,19.2054466 31.4866683,18.3983857 C31.4866683,17.6012719 31.3225038,16.0574529 31.1480183,14.6413755 Z" id="Shape" fill="#CCCCCC"></path>
                    <path d="M36.7967715,18.3983857 C36.7967715,17.0784885 35.2771845,15.9214096 33.6144491,15.248971 C33.7590185,16.4802418 33.8799542,17.7143547 33.8799542,18.3983857 C33.8799542,19.0906437 33.7794362,20.2903531 33.6521433,21.5325433 C35.2999955,20.857861 36.7967715,19.7083358 36.7967715,18.3983857 Z" id="Shape" fill="#CCCCCC"></path>
                    <path d="M33.6144491,15.248971 C32.7688712,14.9069555 31.8865714,14.6902883 31.1480183,14.6413755 C31.3225038,16.0574529 31.4866683,17.6012719 31.4866683,18.3983857 C31.4866683,19.2054466 31.3500266,20.7023722 31.1935655,22.1521052 C31.933764,22.0966856 32.8123991,21.876279 33.6520685,21.5325433 C33.7794362,20.2903531 33.8799542,19.0906437 33.8799542,18.3983857 C33.8799542,17.7143547 33.7590185,16.4802418 33.6144491,15.248971 Z" id="Shape" fill="#29ABE2"></path>
                    <g id="Group" fill="#000000">
                        <path d="M33.8949123,14.5555912 C32.9762644,14.1840335 32.0182769,13.9494915 31.1975294,13.8950443 C31.1974546,13.8950443 31.1973798,13.8950443 31.197305,13.8950443 C31.0166119,13.883003 30.8430987,13.8797871 30.6803553,13.8853215 L23.6596509,14.1399073 L17.0876877,2.18761294 C16.3566137,0.857993013 14.9598321,0.0320101996 13.4424889,0.0320101996 L11.9472087,0.0320101996 C11.7116944,0.0320101996 11.4899415,0.142924045 11.3486628,0.331470104 C11.2073841,0.520016163 11.1632579,0.763981749 11.2293725,0.990072481 L15.1833052,14.4974044 L5.66378599,15.3570428 L4.01249347,10.5278405 C3.90905865,10.2252394 3.62463157,10.0218849 3.30482873,10.0218849 L0.747901859,10.0218849 C0.530561579,10.0218849 0.323991085,10.1164197 0.181889732,10.2808833 C0.0398631691,10.4454217 -0.0236336987,10.6635099 0.00800254989,10.8786065 L1.11385024,18.3983857 L0.00800254989,25.918165 C-0.0236336987,26.1331868 0.0398631691,26.3513497 0.181889732,26.5158881 C0.323991085,26.6803518 0.530561579,26.7748866 0.747901859,26.7748866 L3.30482873,26.7748866 C3.62463157,26.7748866 3.90905865,26.571532 4.01249347,26.2689309 L5.66378599,21.4397286 L15.1833052,22.299367 L11.2293725,35.806699 C11.1631831,36.0327897 11.2073841,36.2767553 11.3486628,36.4653014 C11.4899415,36.6538474 11.7116944,36.7647613 11.9472087,36.7647613 L13.4424889,36.7647613 C14.9598321,36.7647613 16.3566137,35.9387785 17.0876877,34.6091585 L23.6596509,22.6567893 L30.6821502,22.9113751 C30.8589542,22.9172836 31.0498936,22.9127961 31.2495086,22.8978381 C31.2496582,22.8978381 31.249733,22.8978381 31.2498825,22.8977633 C32.0719015,22.8361362 33.0256259,22.597032 33.9354485,22.2245769 C36.1954584,21.2994223 37.5446733,19.8690599 37.5446733,18.3983857 C37.5446733,16.916493 36.180276,15.4799979 33.8949123,14.5555912 Z M32.9234625,15.7880587 C33.0601042,17.0074379 33.1320524,17.9053688 33.1320524,18.3983857 C33.1320524,18.9148868 33.0720706,19.7888101 32.9539021,20.9980178 C32.6468884,21.10594 32.3371075,21.1957631 32.037498,21.2643457 C32.1683808,19.9418308 32.2345701,18.980029 32.2345701,18.3983857 C32.2345701,17.8284845 32.1577606,16.8641399 32.0060113,15.5251712 L32.0060861,15.5251712 C32.3052468,15.5923327 32.6154765,15.6811087 32.9234625,15.7880587 Z M5.2133247,19.8972558 C4.86943942,19.8664423 4.54993575,20.0739103 4.43842358,20.4001451 L2.77007891,25.2790828 L1.61382263,25.2790828 L2.60965396,18.5072055 C2.62027416,18.4350329 2.62027416,18.3617385 2.60965396,18.289566 L1.61382263,11.5176886 L2.77007891,11.5176886 L4.43842358,16.3966264 C4.54986096,16.7227116 4.86951421,16.9304788 5.2133247,16.8995156 L16.2239359,15.9052549 C16.4467358,15.8851363 16.6488937,15.7663695 16.7747656,15.5814134 C16.9006375,15.3964572 16.9372847,15.1649816 16.8744609,14.950259 L12.9453585,1.52781392 L13.4424141,1.52781392 C14.4141629,1.52781392 15.3086536,2.0568049 15.7769149,2.90836596 L21.9830046,14.1951773 L20.9111864,14.2383312 C20.4984194,14.2549346 20.1773451,14.6029334 20.1939485,15.0157004 C20.210178,15.4181464 20.5414985,15.7335366 20.9407285,15.7335366 C20.9509,15.7335366 20.9610715,15.733387 20.9713177,15.7329383 L23.1364188,15.6458077 C23.1749357,15.6505195 23.2139014,15.6529876 23.2533906,15.6515666 L30.4847041,15.3893522 C30.6513367,16.8160498 30.7387664,17.8492762 30.7387664,18.3983857 C30.7387664,18.9653701 30.6633779,19.9988957 30.5196312,21.4087655 L23.9261284,21.1696613 C23.9126661,21.1684646 23.8994283,21.1665949 23.8857417,21.1661461 L16.0521428,20.876035 L5.2133247,19.8972558 Z M15.7769149,33.8884055 C15.3086536,34.7399666 14.4141629,35.2689575 13.4424141,35.2689575 L12.9453585,35.2689575 L16.7132133,22.3972674 L17.3596248,22.4212003 L16.321911,25.9664046 C16.2059114,26.3627926 16.4331988,26.7782521 16.8295868,26.8942517 C16.89974,26.9147442 16.9704915,26.9245417 17.0400464,26.9245417 C17.3635887,26.9245417 17.6619268,26.7128107 17.7575086,26.3865759 L18.9014993,22.4782652 L21.9879407,22.5926194 L15.7769149,33.8884055 Z M34.5237481,20.2584177 C34.5929291,19.4432046 34.6278561,18.8202024 34.6278561,18.3983857 C34.6278561,17.9834498 34.5868711,17.3565584 34.5055741,16.5266117 C35.4608692,17.111471 36.0488696,17.8020088 36.0488696,18.3983857 C36.0488696,18.9892282 35.4677499,19.6755777 34.5237481,20.2584177 Z" id="Shape"></path>
                        <path d="M18.397937,15.8358496 C18.4081085,15.8358496 18.4182051,15.8357 18.4284514,15.8352513 L18.8771177,15.8172268 C19.2898847,15.8006234 19.6110338,15.4526247 19.5944304,15.0398576 C19.5777522,14.6270906 19.2289307,14.305418 18.8170612,14.3226198 L18.3683949,14.3406442 C17.9556278,14.3572476 17.6344788,14.7052464 17.6510822,15.1180134 C17.6673865,15.5204594 17.998707,15.8358496 18.397937,15.8358496 Z" id="Shape"></path>
                        <path d="M16.68053,27.4032737 C16.2839924,27.2873489 15.8686825,27.5144867 15.7526081,27.9109495 L15.2709593,29.5564084 C15.1549597,29.9528711 15.3822471,30.3682558 15.7786351,30.4843302 C15.8487883,30.5048227 15.9195398,30.5146202 15.9890947,30.5146202 C16.312637,30.5146202 16.6109751,30.3028892 16.7065569,29.9766544 L17.1882057,28.3311955 C17.3042053,27.9347328 17.0769179,27.5193481 16.68053,27.4032737 Z" id="Shape"></path>
                    </g>
                </g>
                <g id="bus-(1)-copy-3" transform="translate(229.000000, 45.000000)">
                    <g id="Group" transform="translate(3.864998, 0.773000)">
                        <g>
                            <rect id="Rectangle-path" fill="#FBB03B" x="0.0303788827" y="20.8532091" width="31.0139018" height="10.2882376"></rect>
                            <path d="M31.0442034,3.11719803 C31.0442034,1.4124248 29.6622348,0.0303788827 27.9573843,0.0303788827 L3.11712073,0.0303788827 C1.4123475,0.0303788827 0.0303015827,1.4123475 0.0303015827,3.11719803 L0.0303015827,7.78433747 L31.0442034,7.78433747 L31.0442034,3.11719803 Z" id="Shape" fill="#FBB03B"></path>
                            <rect id="Rectangle-path" fill="#29ABE2" x="0.0303788827" y="7.78433747" width="31.0139018" height="13.0688717"></rect>
                        </g>
                        <rect id="Rectangle-path" fill="#CCCCCC" x="6.6675077" y="2.50119468" width="17.7959186" height="2.78063402"></rect>
                    </g>
                    <g id="Group" transform="translate(5.256397, 31.847582)" fill="#333333">
                        <path d="M2.281972,4.9168956 L1.81855876,4.9168956 C0.820384433,4.9168956 0.0111311937,4.10771966 0.0111311937,3.10946803 L0.0111311937,0.0668644619 L4.08939957,0.0668644619 L4.08939957,3.10946803 C4.08932227,4.10771966 3.28014633,4.9168956 2.281972,4.9168956 Z" id="Shape"></path>
                        <path d="M26.4733024,4.9168956 L26.0098892,4.9168956 C25.0117149,4.9168956 24.2024616,4.10771966 24.2024616,3.10946803 L24.2024616,0.0668644619 L28.28073,0.0668644619 L28.28073,3.10946803 C28.2806527,4.10771966 27.4714768,4.9168956 26.4733024,4.9168956 Z" id="Shape"></path>
                    </g>
                    <circle id="Oval" fill="#CCCCCC" cx="9.11714331" cy="26.8453471" r="1.66913795"></circle>
                    <circle id="Oval" fill="#CCCCCC" cx="29.6874346" cy="26.8453471" r="1.66913795"></circle>
                    <rect id="Rectangle-path" fill="#FBB03B" x="34.926671" y="14.6201272" width="3.10490733" height="6.98598352"></rect>
                    <g id="Group">
                        <rect id="Rectangle-path" fill="#FBB03B" x="0.77299956" y="14.6201272" width="3.10490733" height="6.98598352"></rect>
                        <g id="Shape" fill="#000000">
                            <path d="M28.3285014,2.50119468 L10.5325055,2.50119468 C10.1055778,2.50119468 9.75950594,2.84726658 9.75950594,3.27419424 L9.75950594,6.05482825 C9.75950594,6.48175591 10.1055778,6.82782781 10.5325055,6.82782781 L28.3285014,6.82782781 C28.7553517,6.82782781 29.1015009,6.48175591 29.1015009,6.05482825 L29.1015009,3.27419424 C29.1015009,2.84726658 28.7553517,2.50119468 28.3285014,2.50119468 Z M27.5555018,5.28182869 L11.3055051,5.28182869 L11.3055051,4.0471938 L27.5555018,4.0471938 L27.5555018,5.28182869 Z"></path>
                            <path d="M6.91772766,12.2036533 L18.0401864,12.2036533 C18.4671141,12.2036533 18.813186,11.8575813 18.813186,11.4306537 C18.813186,11.003726 18.4671141,10.6576541 18.0401864,10.6576541 L6.91772766,10.6576541 C6.4908,10.6576541 6.1447281,11.003726 6.1447281,11.4306537 C6.1447281,11.8575813 6.4908,12.2036533 6.91772766,12.2036533 Z"></path>
                            <path d="M21.1914737,12.2036533 L22.5817907,12.2036533 C23.0086411,12.2036533 23.3547903,11.8575813 23.3547903,11.4306537 C23.3547903,11.003726 23.0086411,10.6576541 22.5817907,10.6576541 L21.1914737,10.6576541 C20.7646234,10.6576541 20.4184742,11.003726 20.4184742,11.4306537 C20.4184742,11.8575813 20.7646234,12.2036533 21.1914737,12.2036533 Z"></path>
                            <path d="M9.11714331,29.2874846 C10.4637085,29.2874846 11.5592808,28.1919896 11.5592808,26.8454244 C11.5592808,25.4988592 10.4637858,24.4032869 9.11714331,24.4032869 C7.77050078,24.4032869 6.6750058,25.4987819 6.6750058,26.8454244 C6.6750058,28.1919896 7.77050078,29.2874846 9.11714331,29.2874846 Z M9.11714331,25.949286 C9.61124463,25.949286 10.0132817,26.3513231 10.0132817,26.8454244 C10.0132817,27.3395257 9.61124463,27.7414855 9.11714331,27.7414855 C8.62304199,27.7414855 8.22100492,27.3395257 8.22100492,26.8454244 C8.22100492,26.3513231 8.62304199,25.949286 9.11714331,25.949286 Z"></path>
                            <path d="M29.6874346,29.2874846 C31.0339998,29.2874846 32.1295721,28.1919896 32.1295721,26.8454244 C32.1295721,25.4988592 31.0339998,24.4032869 29.6874346,24.4032869 C28.3408694,24.4032869 27.2453744,25.4987819 27.2453744,26.8454244 C27.2453744,28.1919896 28.3408694,29.2874846 29.6874346,29.2874846 Z M29.6874346,25.949286 C30.1816132,25.949286 30.583573,26.3513231 30.583573,26.8454244 C30.583573,27.3395257 30.1816132,27.7414855 29.6874346,27.7414855 C29.1933333,27.7414855 28.7913735,27.3395257 28.7913735,26.8454244 C28.7913735,26.3513231 29.1933333,25.949286 29.6874346,25.949286 Z"></path>
                            <path d="M35.6822008,3.89019759 C35.6822008,1.7618979 33.9507591,0.0303788827 31.8223821,0.0303788827 L6.98219582,0.0303788827 C4.85389614,0.0303788827 3.12237712,1.7618979 3.12237712,3.89019759 L3.12237712,13.8471276 L0.77299956,13.8471276 C0.346071903,13.8471276 0,14.1931995 0,14.6201272 L0,21.6061107 C0,22.0330384 0.346071903,22.3791103 0.77299956,22.3791103 L3.12237712,22.3791103 L3.12237712,31.9144463 C3.12237712,32.341374 3.46844903,32.6874459 3.89537668,32.6874459 L4.49452864,32.6874459 L4.49452864,34.9570499 C4.49452864,36.3799102 5.65209548,37.5373997 7.07495577,37.5373997 L7.53836901,37.5373997 C8.9612293,37.5373997 10.1187961,36.3798329 10.1187961,34.9570499 L10.1187961,32.6874459 L28.6858591,32.6874459 L28.6858591,34.9570499 C28.6858591,36.3799102 29.8434259,37.5373997 31.2662862,37.5373997 L31.7296994,37.5373997 C33.1525597,37.5373997 34.3101266,36.3798329 34.3101266,34.9570499 L34.3101266,32.6874459 L34.9092785,32.6874459 C35.3361289,32.6874459 35.6822781,32.341374 35.6822781,31.9144463 L35.6822781,22.3791103 L38.0315783,22.3791103 C38.4584287,22.3791103 38.8045779,22.0330384 38.8045779,21.6061107 L38.8045779,14.6201272 C38.8045779,14.1931995 38.4584287,13.8471276 38.0315783,13.8471276 L35.6822008,13.8471276 L35.6822008,3.89019759 Z M4.66837624,31.1415241 L4.66837624,22.3992855 L34.136279,22.3992855 L34.136279,31.1415241 L4.66837624,31.1415241 Z M34.1362017,20.8532864 L30.7335349,20.8532864 C30.6925659,20.8313332 30.6494325,20.8122402 30.6035937,20.7975532 L20.7788466,17.6461113 C20.3721715,17.5156289 19.9369727,17.7395669 19.806645,18.1460874 C19.6763173,18.5526078 19.9001007,18.9878839 20.3066211,19.1182116 L25.7158402,20.8532091 L17.8500285,20.8532091 L7.8952629,17.6461113 C7.48858784,17.5156289 7.05346638,17.7394896 6.92313866,18.1460874 C6.79273363,18.5526078 7.01659431,18.9878839 7.42311477,19.1182116 L12.8323338,20.8532091 L4.66837624,20.8532091 L4.66837624,9.33033659 L34.136279,9.33033659 L34.136279,20.8532864 L34.1362017,20.8532864 Z M4.66837624,3.89019759 C4.66837624,2.61436181 5.70636005,1.576378 6.98219582,1.576378 L31.8224594,1.576378 C33.0982952,1.576378 34.136279,2.61436181 34.136279,3.89019759 L34.136279,7.78433747 L4.66837624,7.78433747 L4.66837624,3.89019759 Z M3.10490733,20.8331111 L1.54599912,20.8331111 L1.54599912,15.3931267 L3.10490733,15.3931267 L3.10490733,20.8331111 Z M8.57271972,34.9571272 C8.57271972,35.5274463 8.10868808,35.9914779 7.53829171,35.9914779 L7.07487847,35.9914779 C6.5044821,35.9914779 6.04045046,35.5274463 6.04045046,34.9571272 L6.04045046,32.6875232 L8.57271972,32.6875232 C8.57271972,32.6875232 8.57271972,34.9571272 8.57271972,34.9571272 Z M32.7640501,34.9571272 C32.7640501,35.5274463 32.3000185,35.9914779 31.7296221,35.9914779 L31.2662089,35.9914779 C30.6958125,35.9914779 30.2317809,35.5274463 30.2317809,34.9571272 L30.2317809,32.6875232 L32.7640501,32.6875232 L32.7640501,34.9571272 L32.7640501,34.9571272 Z M37.2585788,20.8331111 L35.6996706,20.8331111 L35.6996706,15.3931267 L37.2585788,15.3931267 L37.2585788,20.8331111 Z"></path>
                        </g>
                    </g>
                </g>
                <g id="bus-(1)-copy-2" transform="translate(0.000000, 30.418666)">
                    <g id="Group" transform="translate(1.896132, 0.379226)">
                        <g>
                            <rect id="Rectangle-path" fill="#FBB03B" x="0.0149036008" y="10.2303929" width="15.2151354" height="5.04731489"></rect>
                            <path d="M15.2300011,1.52926872 C15.2300011,0.692922631 14.5520199,0.0149036008 13.7156359,0.0149036008 L1.5292308,0.0149036008 C0.692884709,0.0149036008 0.0148656782,0.692884709 0.0148656782,1.52926872 L0.0148656782,3.81892446 L15.2300011,3.81892446 L15.2300011,1.52926872 Z" id="Shape" fill="#FBB03B"></path>
                            <rect id="Rectangle-path" fill="#29ABE2" x="0.0149036008" y="3.81892446" width="15.2151354" height="6.4114684"></rect>
                        </g>
                        <rect id="Rectangle-path" fill="#CCCCCC" x="3.27101804" y="1.22706313" width="8.73051419" height="1.36415351"></rect>
                    </g>
                    <g id="Group" transform="translate(2.578740, 15.624131)" fill="#333333">
                        <path d="M12.987559,2.41218382 L12.7602127,2.41218382 C12.2705176,2.41218382 11.8735054,2.01520954 11.8735054,1.52547645 L11.8735054,0.0328030909 L13.8742664,0.0328030909 L13.8742664,1.52547645 C13.8742285,2.01520954 13.4772542,2.41218382 12.987559,2.41218382 Z" id="Shape"></path>
                    </g>
                    <circle id="Oval" fill="#CCCCCC" cx="14.5643827" cy="13.1700807" r="1"></circle>
                    <rect id="Rectangle-path" fill="#FBB03B" x="17.134704" y="7.1725001" width="1.52323902" height="3.42725935"></rect>
                    <g id="Group" fill="#000000">
                        <g id="Shape">
                            <path d="M13.8977026,1.22706313 L5.16715046,1.22706313 C4.95770367,1.22706313 4.78792397,1.39684283 4.78792397,1.60628962 L4.78792397,2.97044313 C4.78792397,3.17988991 4.95770367,3.34966961 5.16715046,3.34966961 L13.8977026,3.34966961 C14.1071114,3.34966961 14.2769291,3.17988991 14.2769291,2.97044313 L14.2769291,1.60628962 C14.2769291,1.39684283 14.1071114,1.22706313 13.8977026,1.22706313 Z M13.5184761,2.59121664 L5.54637694,2.59121664 L5.54637694,1.9855161 L13.5184761,1.9855161 L13.5184761,2.59121664 Z"></path>
                            <path d="M3.39377365,5.98700019 L8.85034976,5.98700019 C9.05979655,5.98700019 9.22957624,5.8172205 9.22957624,5.60777371 C9.22957624,5.39832692 9.05979655,5.22854722 8.85034976,5.22854722 L3.39377365,5.22854722 C3.18432686,5.22854722 3.01454717,5.39832692 3.01454717,5.60777371 C3.01454717,5.8172205 3.18432686,5.98700019 3.39377365,5.98700019 Z"></path>
                            <path d="M10.3963424,5.98700019 L11.0784191,5.98700019 C11.287828,5.98700019 11.4576456,5.8172205 11.4576456,5.60777371 C11.4576456,5.39832692 11.287828,5.22854722 11.0784191,5.22854722 L10.3963424,5.22854722 C10.1869335,5.22854722 10.0171159,5.39832692 10.0171159,5.60777371 C10.0171159,5.8172205 10.1869335,5.98700019 10.3963424,5.98700019 Z"></path>
                            <path d="M14.5643827,14.3681709 C15.2249953,14.3681709 15.762473,13.8307312 15.762473,13.1701186 C15.762473,12.5095061 15.2249953,11.9720284 14.5643827,11.9720284 C13.9037702,11.9720284 13.3663304,12.5094682 13.3663304,13.1701186 C13.3663304,13.8307312 13.9037702,14.3681709 14.5643827,14.3681709 Z M14.5643827,12.7304814 C14.8068222,12.7304814 15.00402,12.9277171 15.00402,13.1701186 C15.00402,13.4125202 14.8068222,13.609718 14.5643827,13.609718 C14.3219812,13.609718 14.1247834,13.4125202 14.1247834,13.1701186 C14.1247834,12.9277171 14.3219812,12.7304814 14.5643827,12.7304814 Z"></path>
                            <path d="M17.50536,1.9084952 C17.50536,0.864370925 16.6559306,0.0149036008 15.6117684,0.0149036008 L3.42540114,0.0149036008 C2.38127686,0.0149036008 1.53180954,0.864370925 1.53180954,1.9084952 L1.53180954,6.79327362 L0.379226484,6.79327362 C0.169779697,6.79327362 0,6.96305332 0,7.1725001 L0,10.5997595 C0,10.8092062 0.169779697,10.9789859 0.379226484,10.9789859 L1.53180954,10.9789859 L1.53180954,15.6569342 C1.53180954,15.866381 1.70158923,16.0361607 1.91103602,16.0361607 L2.20497447,16.0361607 L2.20497447,17.1496076 C2.20497447,17.8476498 2.77286613,18.4155035 3.47090832,18.4155035 L3.69825459,18.4155035 C4.39629678,18.4155035 4.96418844,17.8476119 4.96418844,17.1496076 L4.96418844,16.0361607 L14.073019,16.0361607 L14.073019,17.1496076 C14.073019,17.8476498 14.6409106,18.4155035 15.3389528,18.4155035 L15.5662991,18.4155035 C16.2643413,18.4155035 16.8322329,17.8476119 16.8322329,17.1496076 L16.8322329,16.0361607 L17.1261714,16.0361607 C17.3355803,16.0361607 17.5053979,15.866381 17.5053979,15.6569342 L17.5053979,10.9789859 L18.657943,10.9789859 C18.8673519,10.9789859 19.0371695,10.8092062 19.0371695,10.5997595 L19.0371695,7.1725001 C19.0371695,6.96305332 18.8673519,6.79327362 18.657943,6.79327362 L17.50536,6.79327362 L17.50536,1.9084952 Z M2.2902625,15.2777457 L2.2902625,10.9888837 L16.7469449,10.9888837 L16.7469449,15.2777457 L2.2902625,15.2777457 Z M16.746907,10.2304308 L15.0775899,10.2304308 C15.0574909,10.2196607 15.0363301,10.2102939 15.013842,10.2030886 L10.1939113,8.6570201 C9.99440022,8.59300667 9.78089571,8.70286858 9.71695812,8.90230379 C9.65302054,9.101739 9.7628066,9.31528143 9.96224181,9.37921901 L12.615955,10.2303929 L8.75706004,10.2303929 L3.87334346,8.6570201 C3.67383241,8.59300667 3.46036582,8.70283066 3.39642824,8.90230379 C3.33245273,9.101739 3.44227672,9.31528143 3.64171193,9.37921901 L6.29542509,10.2303929 L2.2902625,10.2303929 L2.2902625,4.57737743 L16.7469449,4.57737743 L16.7469449,10.2304308 L16.746907,10.2304308 Z M2.2902625,1.9084952 C2.2902625,1.28258189 2.79948783,0.773356569 3.42540114,0.773356569 L15.6118063,0.773356569 C16.2377196,0.773356569 16.7469449,1.28258189 16.7469449,1.9084952 L16.7469449,3.81892446 L2.2902625,3.81892446 L2.2902625,1.9084952 Z M1.52323902,10.220533 L0.758452968,10.220533 L0.758452968,7.55172659 L1.52323902,7.55172659 L1.52323902,10.220533 Z M4.20569755,17.1496455 C4.20569755,17.4294388 3.97804789,17.6570885 3.69821667,17.6570885 L3.47087039,17.6570885 C3.19103917,17.6570885 2.96338951,17.4294388 2.96338951,17.1496455 L2.96338951,16.0361986 L4.20569755,16.0361986 C4.20569755,16.0361986 4.20569755,17.1496455 4.20569755,17.1496455 Z M16.0737421,17.1496455 C16.0737421,17.4294388 15.8460924,17.6570885 15.5662612,17.6570885 L15.3389149,17.6570885 C15.0590837,17.6570885 14.831434,17.4294388 14.831434,17.1496455 L14.831434,16.0361986 L16.0737421,16.0361986 L16.0737421,17.1496455 L16.0737421,17.1496455 Z M18.2787165,10.220533 L17.5139305,10.220533 L17.5139305,7.55172659 L18.2787165,7.55172659 L18.2787165,10.220533 Z"></path>
                        </g>
                    </g>
                </g>
                <g id="bus-(1)-copy" transform="translate(120.000000, 40.000000)">
                    <g id="Group" transform="translate(5.049423, 1.009885)">
                        <g>
                            <rect id="Rectangle-path" fill="#FBB03B" x="0.0396884668" y="27.2436582" width="40.518087" height="13.4410598"></rect>
                            <path d="M40.5576745,4.07246084 C40.5576745,1.84526123 38.7522027,0.0396884668 36.5249021,0.0396884668 L4.07235985,0.0396884668 C1.84516024,0.0396884668 0.0395874783,1.84516024 0.0395874783,4.07246084 L0.0395874783,10.1698414 L40.5576745,10.1698414 L40.5576745,4.07246084 Z" id="Shape" fill="#FBB03B"></path>
                            <rect id="Rectangle-path" fill="#29ABE2" x="0.0396884668" y="10.1698414" width="40.518087" height="17.0738168"></rect>
                        </g>
                        <rect id="Rectangle-path" fill="#CCCCCC" x="8.71076005" y="3.26768376" width="23.2494634" height="3.63275706"></rect>
                    </g>
                    <g id="Group" transform="translate(6.867216, 41.607248)" fill="#333333">
                        <path d="M2.98128048,6.42367428 L2.37585463,6.42367428 C1.07179058,6.42367428 0.014542339,5.36652703 0.014542339,4.06236199 L0.014542339,0.0873550223 L5.34259277,0.0873550223 L5.34259277,4.06236199 C5.34249178,5.36652703 4.28534453,6.42367428 2.98128048,6.42367428 Z" id="Shape"></path>
                        <path d="M34.5860246,6.42367428 L33.9805987,6.42367428 C32.6765347,6.42367428 31.6192864,5.36652703 31.6192864,4.06236199 L31.6192864,0.0873550223 L36.9473369,0.0873550223 L36.9473369,4.06236199 C36.9472359,5.36652703 35.8900886,6.42367428 34.5860246,6.42367428 Z" id="Shape"></path>
                    </g>
                    <circle id="Oval" fill="#CCCCCC" cx="11.9110845" cy="35.072082" r="2.18064393"></circle>
                    <circle id="Oval" fill="#CCCCCC" cx="38.7851249" cy="35.072082" r="2.18064393"></circle>
                    <rect id="Rectangle-path" fill="#FBB03B" x="45.6299211" y="19.1004533" width="4.05640368" height="9.12683253"></rect>
                    <g id="Group">
                        <rect id="Rectangle-path" fill="#FBB03B" x="1.00988465" y="19.1004533" width="4.05640368" height="9.12683253"></rect>
                        <g id="Shape" fill="#000000">
                            <path d="M37.0097477,3.26768376 L13.7601833,3.26768376 C13.202424,3.26768376 12.7502987,3.71980912 12.7502987,4.27756841 L12.7502987,7.91032548 C12.7502987,8.46808477 13.202424,8.92021013 13.7601833,8.92021013 L37.0097477,8.92021013 C37.567406,8.92021013 38.0196324,8.46808477 38.0196324,7.91032548 L38.0196324,4.27756841 C38.0196324,3.71980912 37.567406,3.26768376 37.0097477,3.26768376 Z M35.9998631,6.90044083 L14.770068,6.90044083 L14.770068,5.28745306 L35.9998631,5.28745306 L35.9998631,6.90044083 Z"></path>
                            <path d="M9.03765971,15.9434529 L23.568587,15.9434529 C24.1263463,15.9434529 24.5784716,15.4913276 24.5784716,14.9335683 C24.5784716,14.375809 24.1263463,13.9236836 23.568587,13.9236836 L9.03765971,13.9236836 C8.47990042,13.9236836 8.02777506,14.375809 8.02777506,14.9335683 C8.02777506,15.4913276 8.47990042,15.9434529 9.03765971,15.9434529 Z"></path>
                            <path d="M27.6855837,15.9434529 L29.5019623,15.9434529 C30.0596206,15.9434529 30.5118469,15.4913276 30.5118469,14.9335683 C30.5118469,14.375809 30.0596206,13.9236836 29.5019623,13.9236836 L27.6855837,13.9236836 C27.1279254,13.9236836 26.6756991,14.375809 26.6756991,14.9335683 C26.6756991,15.4913276 27.1279254,15.9434529 27.6855837,15.9434529 Z"></path>
                            <path d="M11.9110845,38.2626106 C13.6703036,38.2626106 15.1016131,36.8314021 15.1016131,35.072183 C15.1016131,33.312964 13.6704046,31.8816545 11.9110845,31.8816545 C10.1517645,31.8816545 8.72055593,33.312863 8.72055593,35.072183 C8.72055593,36.8314021 10.1517645,38.2626106 11.9110845,38.2626106 Z M11.9110845,33.9014238 C12.5566028,33.9014238 13.0818438,34.4266648 13.0818438,35.072183 C13.0818438,35.7177013 12.5566028,36.2428413 11.9110845,36.2428413 C11.2655662,36.2428413 10.7403252,35.7177013 10.7403252,35.072183 C10.7403252,34.4266648 11.2655662,33.9014238 11.9110845,33.9014238 Z"></path>
                            <path d="M38.7851249,38.2626106 C40.544344,38.2626106 41.9756535,36.8314021 41.9756535,35.072183 C41.9756535,33.312964 40.544344,31.8816545 38.7851249,31.8816545 C37.0259059,31.8816545 35.5946974,33.312863 35.5946974,35.072183 C35.5946974,36.8314021 37.0259059,38.2626106 38.7851249,38.2626106 Z M38.7851249,33.9014238 C39.4307442,33.9014238 39.9558842,34.4266648 39.9558842,35.072183 C39.9558842,35.7177013 39.4307442,36.2428413 38.7851249,36.2428413 C38.1396067,36.2428413 37.6144667,35.7177013 37.6144667,35.072183 C37.6144667,34.4266648 38.1396067,33.9014238 38.7851249,33.9014238 Z"></path>
                            <path d="M46.6169824,5.08234549 C46.6169824,2.30183008 44.3549418,0.0396884668 41.5743254,0.0396884668 L9.12188409,0.0396884668 C6.34136869,0.0396884668 4.07922707,2.30183008 4.07922707,5.08234549 L4.07922707,18.0905687 L1.00988465,18.0905687 C0.452125358,18.0905687 0,18.542694 0,19.1004533 L0,28.2272859 C0,28.7850452 0.452125358,29.2371705 1.00988465,29.2371705 L4.07922707,29.2371705 L4.07922707,41.6946026 C4.07922707,42.2523619 4.53135243,42.7044873 5.08911172,42.7044873 L5.87187331,42.7044873 L5.87187331,45.6696096 C5.87187331,47.5285043 7.38417558,49.0407055 9.24307025,49.0407055 L9.8484961,49.0407055 C11.7073908,49.0407055 13.219693,47.5284033 13.219693,45.6696096 L13.219693,42.7044873 L37.4766174,42.7044873 L37.4766174,45.6696096 C37.4766174,47.5285043 38.9889197,49.0407055 40.8478143,49.0407055 L41.4532402,49.0407055 C43.3121349,49.0407055 44.8244371,47.5284033 44.8244371,45.6696096 L44.8244371,42.7044873 L45.6071987,42.7044873 C46.164857,42.7044873 46.6170834,42.2523619 46.6170834,41.6946026 L46.6170834,29.2371705 L49.6863248,29.2371705 C50.2439831,29.2371705 50.6962095,28.7850452 50.6962095,28.2272859 L50.6962095,19.1004533 C50.6962095,18.542694 50.2439831,18.0905687 49.6863248,18.0905687 L46.6169824,18.0905687 L46.6169824,5.08234549 Z M6.09899637,40.684819 L6.09899637,29.2635285 L44.5973141,29.2635285 L44.5973141,40.684819 L6.09899637,40.684819 Z M44.5972131,27.2437592 L40.1518018,27.2437592 C40.098278,27.2150785 40.0419264,27.1901343 39.9820402,27.1709465 L27.1465073,23.0537478 C26.615207,22.8832793 26.0466419,23.1758428 25.8763754,23.7069412 C25.7061088,24.2380395 25.9984704,24.8067056 26.5295688,24.9769721 L33.5964386,27.2436582 L23.3201554,27.2436582 L10.3147598,23.0537478 C9.78345953,22.8832793 9.21499546,23.1757419 9.04472891,23.7069412 C8.87436137,24.2380395 9.16682396,24.8067056 9.6979223,24.9769721 L16.7647921,27.2436582 L6.09899637,27.2436582 L6.09899637,12.1896107 L44.5973141,12.1896107 L44.5973141,27.2437592 L44.5972131,27.2437592 Z M6.09899637,5.08234549 C6.09899637,3.41553088 7.45506948,2.05945777 9.12188409,2.05945777 L41.5744263,2.05945777 C43.241241,2.05945777 44.5973141,3.41553088 44.5973141,5.08234549 L44.5973141,10.1698414 L6.09899637,10.1698414 L6.09899637,5.08234549 Z M4.05640368,27.2174012 L2.0197693,27.2174012 L2.0197693,20.110338 L4.05640368,20.110338 L4.05640368,27.2174012 Z M11.1998228,45.6697106 C11.1998228,46.4148035 10.593589,47.0210372 9.84839511,47.0210372 L9.24296926,47.0210372 C8.49777538,47.0210372 7.89154162,46.4148035 7.89154162,45.6697106 L7.89154162,42.7045883 L11.1998228,42.7045883 C11.1998228,42.7045883 11.1998228,45.6697106 11.1998228,45.6697106 Z M42.8045668,45.6697106 C42.8045668,46.4148035 42.1983331,47.0210372 41.4531392,47.0210372 L40.8477134,47.0210372 C40.1025195,47.0210372 39.4962857,46.4148035 39.4962857,45.6697106 L39.4962857,42.7045883 L42.8045668,42.7045883 L42.8045668,45.6697106 L42.8045668,45.6697106 Z M48.6764402,27.2174012 L46.6398058,27.2174012 L46.6398058,20.110338 L48.6764402,20.110338 L48.6764402,27.2174012 Z"></path>
                        </g>
                    </g>
                </g>
                <g id="bus-copy-2" transform="translate(223.000000, 9.183364)">
                    <path d="M54.6286965,7.51433265 C54.6286965,3.98967139 51.7713491,1.13232408 48.2466879,1.13232408 L1.11033936,1.13232408 L1.11033936,12.4949819 L54.6286965,12.4949819 L54.6286965,7.51433265 Z" id="Shape" fill="#29ABE2"></path>
                    <g id="Group" transform="translate(1.110339, 12.435801)">
                        <path d="M53.5183571,0.0591810878 L0,0.0591810878 L0,12.5581602 L5.34339713,12.5581602 C5.34217576,12.5202977 5.34051025,12.4826572 5.34051025,12.4445725 C5.34051025,10.4991469 6.91752524,8.92213188 8.86295083,8.92213188 C10.8083764,8.92213188 12.3853914,10.4991469 12.3853914,12.4445725 C12.3853914,12.4826572 12.3837259,12.5204087 12.3825046,12.5581602 L39.0906074,12.5581602 C39.0893861,12.5202977 39.0877206,12.4826572 39.0877206,12.4445725 C39.0877206,10.4991469 40.6647356,8.92213188 42.6101612,8.92213188 C44.5555868,8.92213188 46.1326017,10.4991469 46.1326017,12.4445725 C46.1326017,12.4826572 46.1309362,12.5204087 46.1297148,12.5581602 L53.5183571,12.5581602 L53.5183571,0.0591810878 Z" id="Shape" fill="#FBB03B"></path>
                        <g id="Shape" transform="translate(5.329629, 8.882715)" fill="#333333">
                            <path d="M3.53332191,0.0394170473 C1.58789632,0.0394170473 0.0108813257,1.61643204 0.0108813257,3.56185763 C0.0108813257,3.59994227 0.0125468347,3.63769381 0.013768208,3.67544535 C0.0739486013,5.56812982 1.62609199,7.08429821 3.53332191,7.08429821 C5.44055182,7.08429821 6.99280625,5.56812982 7.0528756,3.67544535 C7.05409698,3.63758278 7.05576249,3.59994227 7.05576249,3.56185763 C7.05576249,1.61643204 5.47863646,0.0394170473 3.53332191,0.0394170473 Z"></path>
                            <path d="M37.2805322,0.0394170473 C35.3351066,0.0394170473 33.7580917,1.61643204 33.7580917,3.56185763 C33.7580917,3.59994227 33.7597572,3.63769381 33.7609785,3.67544535 C33.8211589,5.56812982 35.3733023,7.08429821 37.2805322,7.08429821 C39.1877621,7.08429821 40.7400165,5.56812982 40.800086,3.67544535 C40.8013073,3.63758278 40.8029728,3.59994227 40.8029728,3.56185763 C40.8029728,1.61643204 39.2259578,0.0394170473 37.2805322,0.0394170473 Z"></path>
                        </g>
                    </g>
                    <g id="Group" fill="#000000">
                        <path d="M55.7390358,7.51433265 C55.7390358,3.38298196 52.3779276,0.0218736854 48.2465769,0.0218736854 L1.11033936,0.0218736854 C0.497209964,0.0218736854 0,0.518972616 0,1.13221305 L0,24.993961 C0,25.6072015 0.497209964,26.1043004 1.11033936,26.1043004 L5.50583978,26.1043004 C6.0441323,28.0666032 7.84243793,29.5131533 9.97329022,29.5131533 C12.1041424,29.5131533 13.9024481,28.0666032 14.4408516,26.1043004 L39.2531611,26.1043004 C39.7914537,28.0666032 41.5897593,29.5131533 43.7206116,29.5131533 C45.8514638,29.5131533 47.6497694,28.0666032 48.188173,26.1043004 L54.6286965,26.1043004 C55.2418258,26.1043004 55.7390358,25.6072015 55.7390358,24.993961 L55.7390358,7.51433265 Z M2.22067871,2.24255241 L48.2465769,2.24255241 C51.1534453,2.24255241 53.5183571,4.6074642 53.5183571,7.51433265 L53.5183571,11.3846425 L44.7171411,11.3846425 L44.7171411,5.33651303 C44.7171411,4.72327259 44.2199311,4.22617366 43.6068018,4.22617366 C42.9936724,4.22617366 42.4964624,4.72327259 42.4964624,5.33651303 L42.4964624,11.3846425 L33.5817698,11.3846425 L33.5817698,5.33651303 C33.5817698,4.72327259 33.0845598,4.22617366 32.4714304,4.22617366 C31.858301,4.22617366 31.3610911,4.72327259 31.3610911,5.33651303 L31.3610911,11.3846425 L22.5598751,11.3846425 L22.5598751,5.33651303 C22.5598751,4.72327259 22.0626651,4.22617366 21.4495358,4.22617366 C20.8364063,4.22617366 20.3391964,4.72327259 20.3391964,5.33651303 L20.3391964,11.3846425 L11.310694,11.3846425 L11.310694,5.33651303 C11.310694,4.72327259 10.813484,4.22617366 10.2003546,4.22617366 C9.58722516,4.22617366 9.0900152,4.72327259 9.0900152,5.33651303 L9.0900152,11.3846425 L2.22067871,11.3846425 L2.22067871,2.24255241 Z M12.3335385,25.3784716 C12.0999232,26.4794841 11.0986191,27.2924745 9.97329022,27.2924745 C8.98386682,27.2924745 8.0720561,26.6626901 7.71930129,25.7382215 C7.34200797,24.7495754 7.67388841,23.6035941 8.51219463,22.9628173 C9.26589302,22.3866621 10.3182726,22.3100488 11.1466968,22.7736154 C12.056953,23.2830392 12.5507209,24.3547387 12.3335385,25.3784716 Z M46.0807489,25.3784716 C45.8471335,26.4794841 44.8458294,27.2924745 43.7205005,27.2924745 C42.7310771,27.2924745 41.8192665,26.6626901 41.4665116,25.7382215 C41.0892183,24.7495754 41.4210987,23.6035941 42.259405,22.9628173 C43.0131033,22.3866621 44.0654829,22.3100488 44.8939072,22.7736154 C45.8041634,23.2830392 46.2980423,24.3547387 46.0807489,25.3784716 Z M48.2441341,23.8836217 C47.7867853,21.8067319 45.9327407,20.2474823 43.7203895,20.2474823 C41.5080383,20.2474823 39.6541047,21.8066209 39.1967559,23.8836217 L14.4969238,23.8836217 C14.039575,21.8067319 12.1855303,20.2474823 9.97317915,20.2474823 C7.76082798,20.2474823 5.90689435,21.8066209 5.44954557,23.8836217 L2.22067871,23.8836217 L2.22067871,21.7864127 L3.38287092,21.7864127 C3.99600032,21.7864127 4.49321028,21.2893138 4.49321028,20.6760733 C4.49321028,20.0628329 3.99600032,19.565734 3.38287092,19.565734 L2.22067871,19.565734 L2.22067871,13.6052103 L53.5183571,13.6052103 L53.5183571,15.4751328 L52.2425772,15.4751328 C51.6294478,15.4751328 51.1322378,15.9722317 51.1322378,16.5854721 C51.1322378,17.1987126 51.6294478,17.6958115 52.2425772,17.6958115 L53.5183571,17.6958115 L53.5183571,19.565734 L50.3108088,19.565734 C49.6976793,19.565734 49.2004694,20.0628329 49.2004694,20.6760733 C49.2004694,21.2893138 49.6976793,21.7864127 50.3108088,21.7864127 L53.5183571,21.7864127 L53.5183571,23.8836217 L48.2441341,23.8836217 Z" id="Shape"></path>
                        <path d="M36.9027948,19.565734 L16.9044726,19.565734 C16.2913432,19.565734 15.7941332,20.0628329 15.7941332,20.6760733 C15.7941332,21.2893138 16.2913432,21.7864127 16.9044726,21.7864127 L36.9027948,21.7864127 C37.5159241,21.7864127 38.0131341,21.2893138 38.0131341,20.6760733 C38.0131341,20.0628329 37.5160352,19.565734 36.9027948,19.565734 Z" id="Shape"></path>
                        <path d="M51.44713,10.5373425 C52.0602595,10.5373425 52.5574694,10.0402436 52.5574694,9.42700323 L52.5574694,7.72263231 C52.5574694,7.10939188 52.0602595,6.61229295 51.44713,6.61229295 C50.8340006,6.61229295 50.3367907,7.10939188 50.3367907,7.72263231 L50.3367907,9.42700323 C50.3367907,10.0402436 50.8338896,10.5373425 51.44713,10.5373425 Z" id="Shape"></path>
                    </g>
                </g>
                <g id="bus-copy" transform="translate(103.000000, 0.000000)">
                    <path d="M65.9575772,9.07265243 C65.9575772,4.8170481 62.5076741,1.36714507 58.2520698,1.36714507 L1.34060116,1.36714507 L1.34060116,15.0861871 L65.9575772,15.0861871 L65.9575772,9.07265243 Z" id="Shape" fill="#29ABE2"></path>
                    <g id="Group" transform="translate(1.340601, 15.014733)">
                        <path d="M64.616976,0.0714540419 L0,0.0714540419 L0,15.1624673 L6.45150903,15.1624673 C6.45003437,15.1167528 6.44802347,15.0713064 6.44802347,15.0253238 C6.44802347,12.6764565 8.3520793,10.7724006 10.7009466,10.7724006 C13.0498139,10.7724006 14.9538697,12.6764565 14.9538697,15.0253238 C14.9538697,15.0713064 14.9518588,15.1168868 14.9503842,15.1624673 L47.1972045,15.1624673 C47.1957299,15.1167528 47.193719,15.0713064 47.193719,15.0253238 C47.193719,12.6764565 49.0977748,10.7724006 51.4466421,10.7724006 C53.7955094,10.7724006 55.6995652,12.6764565 55.6995652,15.0253238 C55.6995652,15.0713064 55.6975543,15.1168868 55.6960796,15.1624673 L64.616976,15.1624673 L64.616976,0.0714540419 Z" id="Shape" fill="#FBB03B"></path>
                        <g id="Shape" transform="translate(6.434886, 10.724809)" fill="#333333">
                            <path d="M4.26606102,0.0475913413 C1.91719372,0.0475913413 0.0131378914,1.95164717 0.0131378914,4.30051447 C0.0131378914,4.34649709 0.0151487931,4.39207753 0.0166234544,4.43765797 C0.0892840374,6.72284671 1.9633104,8.5534376 4.26606102,8.5534376 C6.56881163,8.5534376 8.44297206,6.72284671 8.51549858,4.43765797 C8.51697324,4.39194347 8.51898415,4.34649709 8.51898415,4.30051447 C8.51898415,1.95164717 6.61479425,0.0475913413 4.26606102,0.0475913413 Z"></path>
                            <path d="M45.0117565,0.0475913413 C42.6628892,0.0475913413 40.7588334,1.95164717 40.7588334,4.30051447 C40.7588334,4.34649709 40.7608443,4.39207753 40.7623189,4.43765797 C40.8349795,6.72284671 42.7090059,8.5534376 45.0117565,8.5534376 C47.3145071,8.5534376 49.1886675,6.72284671 49.2611941,4.43765797 C49.2626687,4.39194347 49.2646796,4.34649709 49.2646796,4.30051447 C49.2646796,1.95164717 47.3606238,0.0475913413 45.0117565,0.0475913413 Z"></path>
                        </g>
                    </g>
                    <g id="Group" fill="#000000">
                        <path d="M67.2981783,9.07265243 C67.2981783,4.08454362 63.2400446,0.0264098429 58.2519358,0.0264098429 L1.34060116,0.0264098429 C0.6003212,0.0264098429 0,0.626596983 0,1.36701101 L0,30.1772003 C0,30.9176143 0.6003212,31.5178014 1.34060116,31.5178014 L6.64763898,31.5178014 C7.29756243,33.8870459 9.46880007,35.6335811 12.0415478,35.6335811 C14.6142954,35.6335811 16.7855331,33.8870459 17.4355906,31.5178014 L47.3934685,31.5178014 C48.043392,33.8870459 50.2146296,35.6335811 52.7873773,35.6335811 C55.360125,35.6335811 57.5313626,33.8870459 58.1814201,31.5178014 L65.9575772,31.5178014 C66.6978571,31.5178014 67.2981783,30.9176143 67.2981783,30.1772003 L67.2981783,9.07265243 Z M2.68120232,2.70761217 L58.2519358,2.70761217 C61.7616296,2.70761217 64.616976,5.56295858 64.616976,9.07265243 L64.616976,13.7455859 L53.9905668,13.7455859 L53.9905668,6.44319731 C53.9905668,5.70278328 53.3902456,5.10259614 52.6499657,5.10259614 C51.9096857,5.10259614 51.3093645,5.70278328 51.3093645,6.44319731 L51.3093645,13.7455859 L40.5459459,13.7455859 L40.5459459,6.44319731 C40.5459459,5.70278328 39.9456247,5.10259614 39.2053447,5.10259614 C38.4650648,5.10259614 37.8647436,5.70278328 37.8647436,6.44319731 L37.8647436,13.7455859 L27.2383344,13.7455859 L27.2383344,6.44319731 C27.2383344,5.70278328 26.6380132,5.10259614 25.8977333,5.10259614 C25.1574533,5.10259614 24.5571321,5.70278328 24.5571321,6.44319731 L24.5571321,13.7455859 L13.6563019,13.7455859 L13.6563019,6.44319731 C13.6563019,5.70278328 13.0559807,5.10259614 12.3157007,5.10259614 C11.5754207,5.10259614 10.9750995,5.70278328 10.9750995,6.44319731 L10.9750995,13.7455859 L2.68120232,13.7455859 L2.68120232,2.70761217 Z M14.8912636,30.6414505 C14.6092012,31.9707906 13.400247,32.9523787 12.0415478,32.9523787 C10.8469381,32.9523787 9.74603639,32.1919898 9.3201274,31.0758052 C8.86459112,29.882134 9.26529681,28.4984995 10.2774507,27.7248386 C11.1874508,27.0292006 12.4580725,26.9366992 13.4582951,27.4964001 C14.5573199,28.111468 15.1534852,29.4054162 14.8912636,30.6414505 Z M55.6369591,30.6414505 C55.3548966,31.9707906 54.1459425,32.9523787 52.7872432,32.9523787 C51.5926335,32.9523787 50.4917319,32.1919898 50.0658229,31.0758052 C49.6102866,29.882134 50.0109923,28.4984995 51.0231462,27.7248386 C51.9331462,27.0292006 53.203768,26.9366992 54.2039906,27.4964001 C55.3030154,28.111468 55.8993148,29.4054162 55.6369591,30.6414505 Z M58.2489864,28.8365991 C57.6967928,26.3290046 55.458257,24.4463984 52.7871092,24.4463984 C50.1159614,24.4463984 47.8775596,26.3288706 47.325366,28.8365991 L17.503291,28.8365991 C16.9510973,26.3290046 14.7125615,24.4463984 12.0414137,24.4463984 C9.37026588,24.4463984 7.13186412,26.3288706 6.5796705,28.8365991 L2.68120232,28.8365991 L2.68120232,26.3044716 L4.08440956,26.3044716 C4.82468952,26.3044716 5.42501072,25.7042845 5.42501072,24.9638705 C5.42501072,24.2234565 4.82468952,23.6232693 4.08440956,23.6232693 L2.68120232,23.6232693 L2.68120232,16.4266542 L64.616976,16.4266542 L64.616976,18.6843606 L63.0766253,18.6843606 C62.3363453,18.6843606 61.7360241,19.2845477 61.7360241,20.0249617 C61.7360241,20.7653758 62.3363453,21.3655629 63.0766253,21.3655629 L64.616976,21.3655629 L64.616976,23.6232693 L60.7442474,23.6232693 C60.0039674,23.6232693 59.4036462,24.2234565 59.4036462,24.9638705 C59.4036462,25.7042845 60.0039674,26.3044716 60.7442474,26.3044716 L64.616976,26.3044716 L64.616976,28.8365991 L58.2489864,28.8365991 Z" id="Shape"></path>
                        <path d="M44.555684,23.6232693 L20.4101165,23.6232693 C19.6698365,23.6232693 19.0695153,24.2234565 19.0695153,24.9638705 C19.0695153,25.7042845 19.6698365,26.3044716 20.4101165,26.3044716 L44.555684,26.3044716 C45.2959639,26.3044716 45.8962851,25.7042845 45.8962851,24.9638705 C45.8962851,24.2234565 45.296098,23.6232693 44.555684,23.6232693 Z" id="Shape"></path>
                    </g>
                </g>
                <g id="tram" transform="translate(67.000000, 46.097274)">
                    <g id="Group" transform="translate(3.781287, 7.142431)">
                        <rect id="Rectangle-path" fill="#CCCCCC" x="0.0578957033" y="0.00932717427" width="28.957767" height="29.0485179"></rect>
                        <rect id="Rectangle-path" fill="#29ABE2" x="3.18972554" y="3.18644843" width="22.6941914" height="11.5286395"></rect>
                        <g id="Oval" transform="translate(3.109058, 21.679378)" fill="#FBB03B">
                            <circle cx="1.94156476" cy="1.8735016" r="1.86089731"></circle>
                            <circle cx="20.9139615" cy="1.8735016" r="1.86089731"></circle>
                        </g>
                        <polygon id="Shape" fill="#603813" points="25.7859396 31.2972912 3.28770289 31.2972912 0.390732976 34.1943452 28.6828255 34.1943452"></polygon>
                    </g>
                    <g id="Group" fill="#000000">
                        <path d="M6.97101241,22.6978046 L29.6651198,22.6978046 C30.1291257,22.6978046 30.5054057,22.3216086 30.5054057,21.8575186 L30.5054057,10.3288792 C30.5054057,9.86478923 30.1291257,9.4885932 29.6651198,9.4885932 L6.97101241,9.4885932 C6.50692246,9.4885932 6.13072644,9.86478923 6.13072644,10.3288792 L6.13072644,21.8575186 C6.13072644,22.3216086 6.50700649,22.6978046 6.97101241,22.6978046 Z M7.81129838,11.1691651 L28.8248338,11.1691651 L28.8248338,21.0172327 L7.81129838,21.0172327 L7.81129838,11.1691651 Z" id="Shape"></path>
                        <path d="M8.83190971,33.3964936 C10.3214006,33.3964936 11.533093,32.1848013 11.533093,30.6953104 C11.533093,29.2058195 10.3213166,27.9941271 8.83190971,27.9941271 C7.34250283,27.9941271 6.13072644,29.2059035 6.13072644,30.6953104 C6.13072644,32.1847172 7.3424188,33.3964936 8.83190971,33.3964936 Z M8.83190971,29.674699 C9.39473326,29.674699 9.85252105,30.1325708 9.85252105,30.6953104 C9.85252105,31.2580499 9.39464923,31.7159217 8.83190971,31.7159217 C8.2691702,31.7159217 7.81129838,31.2580499 7.81129838,30.6953104 C7.81129838,30.1325708 8.2691702,29.674699 8.83190971,29.674699 Z" id="Shape"></path>
                        <path d="M27.8043065,27.9941271 C26.3148996,27.9941271 25.1031232,29.2059035 25.1031232,30.6953104 C25.1031232,32.1847172 26.3148996,33.3964936 27.8043065,33.3964936 C29.2937974,33.3964936 30.5054898,32.1848013 30.5054898,30.6953104 C30.5054898,29.2058195 29.2937134,27.9941271 27.8043065,27.9941271 Z M27.8043065,31.7159217 C27.241567,31.7159217 26.7836951,31.2580499 26.7836951,30.6953104 C26.7836951,30.1324868 27.2414829,29.674699 27.8043065,29.674699 C28.36713,29.674699 28.8249178,30.1325708 28.8249178,30.6953104 C28.8248338,31.2581339 28.366962,31.7159217 27.8043065,31.7159217 Z" id="Shape"></path>
                        <path d="M25.6838448,24.9522078 C25.6838448,24.4881179 25.3075648,24.1119219 24.8435589,24.1119219 L7.08436698,24.1119219 C6.62027704,24.1119219 6.24408101,24.4881179 6.24408101,24.9522078 C6.24408101,25.4162978 6.62027704,25.7924938 7.08436698,25.7924938 L24.8434748,25.7924938 C25.3075648,25.7924938 25.6838448,25.4162978 25.6838448,24.9522078 Z" id="Shape"></path>
                        <path d="M29.4691651,25.7924938 C29.933171,25.7924938 30.309451,25.4162978 30.309451,24.9522078 C30.309451,24.4881179 29.933171,24.1119219 29.4691651,24.1119219 L27.6519626,24.1119219 C27.1879567,24.1119219 26.8116767,24.4881179 26.8116767,24.9522078 C26.8116767,25.4162978 27.1879567,25.7924938 27.6519626,25.7924938 L29.4691651,25.7924938 Z" id="Shape"></path>
                        <path d="M14.5367792,12.2681752 L9.8285729,12.2681752 C9.36448296,12.2681752 8.98828693,12.6443712 8.98828693,13.1084611 C8.98828693,13.5725511 9.36448296,13.9487471 9.8285729,13.9487471 L14.5367792,13.9487471 C15.0008692,13.9487471 15.3770652,13.5725511 15.3770652,13.1084611 C15.3770652,12.6443712 15.0008692,12.2681752 14.5367792,12.2681752 Z" id="Shape"></path>
                        <path d="M17.8138945,12.2681752 L17.2230894,12.2681752 C16.7589995,12.2681752 16.3828035,12.6443712 16.3828035,13.1084611 C16.3828035,13.5725511 16.7589995,13.9487471 17.2230894,13.9487471 L17.8138945,13.9487471 C18.2779844,13.9487471 18.6541805,13.5725511 18.6541805,13.1084611 C18.6541805,12.6443712 18.2779844,12.2681752 17.8138945,12.2681752 Z" id="Shape"></path>
                        <path d="M35.7131621,0 L4.29823079,0 C3.83414085,0 3.45794482,0.376196029 3.45794482,0.84028597 C3.45794482,1.30437591 3.83414085,1.68057194 4.29823079,1.68057194 L26.348427,1.68057194 L26.348427,6.31138792 L10.2877892,6.31138792 L10.2877892,3.95581426 C10.2877892,3.49172432 9.91159316,3.11552829 9.44750322,3.11552829 C8.98341327,3.11552829 8.60721725,3.49172432 8.60721725,3.95581426 L8.60721725,6.31138792 L3.83918257,6.31138792 C3.37509263,6.31138792 2.9988966,6.68758395 2.9988966,7.15167389 L2.9988966,36.2001918 C2.9988966,36.6642818 3.37509263,37.0404778 3.83918257,37.0404778 L7.27183478,37.0404778 L3.97749364,40.3348189 C3.95488995,40.3574226 3.93413488,40.3812867 3.91464025,40.405655 L3.57785363,40.7424416 C3.33753184,40.9827634 3.26560336,41.3441704 3.39567963,41.6581853 C3.5257559,41.9722002 3.83212417,42.1768938 4.17201984,42.1768938 L32.386638,42.1768938 C32.4168042,42.1801709 32.4471386,42.1821876 32.4774729,42.1821876 C32.6925861,42.1821876 32.9075312,42.1001757 33.0716391,41.9360679 C33.3997708,41.6079362 33.3997708,41.0758671 33.0716391,40.7476514 L29.3642974,37.0403097 L32.7969496,37.0403097 C33.2609555,37.0403097 33.6372356,36.6641137 33.6372356,36.2000238 L33.6372356,7.15167389 C33.6372356,6.68758395 33.2609555,6.31138792 32.7969496,6.31138792 L28.028999,6.31138792 L28.028999,1.68057194 L35.713078,1.68057194 C36.1770839,1.68057194 36.553364,1.30437591 36.553364,0.84028597 C36.553364,0.376196029 36.177168,0 35.7131621,0 Z M6.20063823,40.4964899 L7.41712023,39.2800079 L29.219096,39.2800079 L30.435578,40.4964899 L6.20063823,40.4964899 Z M27.5465067,37.599436 L9.08962542,37.599436 L9.64849962,37.0405618 L26.9874645,37.0405618 L27.5465067,37.599436 Z M31.9566636,35.3599899 L4.67946854,35.3599899 L4.67946854,7.99195986 L31.9566636,7.99195986 L31.9566636,35.3599899 L31.9566636,35.3599899 Z" id="Shape"></path>
                        <path d="M1.44235087,0 L0.923138166,0 C0.459048225,0 0.0828521966,0.376196029 0.0828521966,0.84028597 C0.0828521966,1.30437591 0.459048225,1.68057194 0.923138166,1.68057194 L1.44235087,1.68057194 C1.90644081,1.68057194 2.28263684,1.30437591 2.28263684,0.84028597 C2.28263684,0.376196029 1.90635678,0 1.44235087,0 Z" id="Shape"></path>
                    </g>
                </g>
                <g id="tram-copy" transform="translate(195.277270, 54.000000)">
                    <g id="Group" transform="translate(2.815197, 5.317594)">
                        <rect id="Rectangle-path" fill="#CCCCCC" x="0.0431037922" y="0.0069441523" width="21.5592782" height="21.6268429"></rect>
                        <rect id="Rectangle-path" fill="#29ABE2" x="2.37477497" y="2.37233513" width="16.8959984" height="8.58315993"></rect>
                        <g id="Oval" transform="translate(2.314717, 16.140462)" fill="#FBB03B">
                            <circle cx="1.44550976" cy="1.39483621" r="1.38545222"></circle>
                            <circle cx="15.5706037" cy="1.39483621" r="1.38545222"></circle>
                        </g>
                    </g>
                    <g id="Group" fill="#000000">
                        <path d="M5.18997184,16.8986884 L22.0859077,16.8986884 C22.4313636,16.8986884 22.711507,16.6186076 22.711507,16.2730892 L22.711507,7.68992923 C22.711507,7.34441072 22.4313636,7.06432991 22.0859077,7.06432991 L5.18997184,7.06432991 C4.84445334,7.06432991 4.56437253,7.34441072 4.56437253,7.68992923 L4.56437253,16.2730892 C4.56437253,16.6186076 4.8445159,16.8986884 5.18997184,16.8986884 Z M5.81557115,8.31552855 L21.4603083,8.31552855 L21.4603083,15.6474898 L5.81557115,15.6474898 L5.81557115,8.31552855 Z" id="Shape"></path>
                        <path d="M6.57542408,24.8639439 C7.68436136,24.8639439 8.58647557,23.9618298 8.58647557,22.8528924 C8.58647557,21.7439551 7.68429881,20.8418409 6.57542408,20.8418409 C5.4665493,20.8418409 4.56437253,21.7440176 4.56437253,22.8528924 C4.56437253,23.9617672 5.46648673,24.8639439 6.57542408,24.8639439 Z M6.57542408,22.0930395 C6.99445049,22.0930395 7.33527699,22.4339286 7.33527699,22.8528924 C7.33527699,23.2718563 6.99438794,23.6127453 6.57542408,23.6127453 C6.15646023,23.6127453 5.81557115,23.2718563 5.81557115,22.8528924 C5.81557115,22.4339286 6.15646023,22.0930395 6.57542408,22.0930395 Z" id="Shape"></path>
                        <path d="M20.700518,20.8418409 C19.5916432,20.8418409 18.6894665,21.7440176 18.6894665,22.8528924 C18.6894665,23.9617672 19.5916432,24.8639439 20.700518,24.8639439 C21.8094553,24.8639439 22.7115695,23.9618298 22.7115695,22.8528924 C22.7115695,21.7439551 21.8093928,20.8418409 20.700518,20.8418409 Z M20.700518,23.6127453 C20.2815541,23.6127453 19.9406651,23.2718563 19.9406651,22.8528924 C19.9406651,22.433866 20.2814916,22.0930395 20.700518,22.0930395 C21.1195444,22.0930395 21.4603709,22.4339286 21.4603709,22.8528924 C21.4603083,23.2719188 21.1194193,23.6127453 20.700518,23.6127453 Z" id="Shape"></path>
                        <path d="M19.1218181,18.5771088 C19.1218181,18.2315903 18.8416748,17.9515095 18.4962188,17.9515095 L5.27436519,17.9515095 C4.92884669,17.9515095 4.64876588,18.2315903 4.64876588,18.5771088 C4.64876588,18.9226273 4.92884669,19.2027081 5.27436519,19.2027081 L18.4961563,19.2027081 C18.8416748,19.2027081 19.1218181,18.9226273 19.1218181,18.5771088 Z" id="Shape"></path>
                        <path d="M21.9400179,19.2027081 C22.2854738,19.2027081 22.5656172,18.9226273 22.5656172,18.5771088 C22.5656172,18.2315903 22.2854738,17.9515095 21.9400179,17.9515095 L20.5870968,17.9515095 C20.2416409,17.9515095 19.9614976,18.2315903 19.9614976,18.5771088 C19.9614976,18.9226273 20.2416409,19.2027081 20.5870968,19.2027081 L21.9400179,19.2027081 Z" id="Shape"></path>
                        <path d="M10.8227429,9.13374986 L7.31744742,9.13374986 C6.97192891,9.13374986 6.6918481,9.41383067 6.6918481,9.75934918 C6.6918481,10.1048677 6.97192891,10.3849485 7.31744742,10.3849485 L10.8227429,10.3849485 C11.1682613,10.3849485 11.4483422,10.1048677 11.4483422,9.75934918 C11.4483422,9.41383067 11.1682613,9.13374986 10.8227429,9.13374986 Z" id="Shape"></path>
                        <path d="M13.2625802,9.13374986 L12.8227213,9.13374986 C12.4772028,9.13374986 12.197122,9.41383067 12.197122,9.75934918 C12.197122,10.1048677 12.4772028,10.3849485 12.8227213,10.3849485 L13.2625802,10.3849485 C13.6080987,10.3849485 13.8881795,10.1048677 13.8881795,9.75934918 C13.8881795,9.41383067 13.6080987,9.13374986 13.2625802,9.13374986 Z" id="Shape"></path>
                        <path d="M26.5887212,0 L3.20006557,0 C2.85454707,0 2.57446626,0.280080809 2.57446626,0.625599308 C2.57446626,0.971117805 2.85454707,1.25119861 3.20006557,1.25119861 L19.6166046,1.25119861 L19.6166046,4.69887638 L7.65933744,4.69887638 L7.65933744,2.94513385 C7.65933744,2.59961536 7.37925663,2.31953454 7.03373812,2.31953454 C6.68821961,2.31953454 6.4081388,2.59961536 6.4081388,2.94513385 L6.4081388,4.69887638 L2.85830067,4.69887638 C2.51278217,4.69887638 2.23270136,4.9789572 2.23270136,5.32447569 L2.23270136,26.9513186 C2.23270136,27.296837 2.51278217,27.5769179 2.85830067,27.5769179 L5.41393639,27.5769179 L2.96127432,30.02958 C2.94444569,30.0464086 2.92899339,30.0641756 2.91447949,30.082318 L2.66373928,30.3330582 C2.48481788,30.5119796 2.43126658,30.7810499 2.52810935,31.0148363 C2.62495212,31.2486228 2.85304563,31.4010188 3.10610055,31.4010188 L24.1120987,31.4010188 C24.1345577,31.4034586 24.1571418,31.40496 24.179726,31.40496 C24.3398794,31.40496 24.4999077,31.3439016 24.6220872,31.221722 C24.8663837,30.9774255 24.8663837,30.581296 24.6220872,30.3369369 L21.8619431,27.5767927 L24.4175788,27.5767927 C24.7630348,27.5767927 25.0431782,27.2967119 25.0431782,26.9511935 L25.0431782,5.32447569 C25.0431782,4.9789572 24.7630348,4.69887638 24.4175788,4.69887638 L20.8678033,4.69887638 L20.8678033,1.25119861 L26.5886586,1.25119861 C26.9341146,1.25119861 27.214258,0.971117805 27.214258,0.625599308 C27.214258,0.280080809 26.9341771,0 26.5887212,0 Z M4.6164224,30.1499452 L5.52210251,29.2442652 L21.7538395,29.2442652 L22.6595197,30.1499452 L4.6164224,30.1499452 Z M20.5085841,27.9930665 L6.76729539,27.9930665 L7.18338144,27.5769804 L20.0923729,27.5769804 L20.5085841,27.9930665 Z M23.7919795,26.3257818 L3.48389997,26.3257818 L3.48389997,5.95007499 L23.7919795,5.95007499 L23.7919795,26.3257818 L23.7919795,26.3257818 Z" id="Shape"></path>
                        <path d="M1.07384121,0 L0.687283395,0 C0.341764901,0 0.0616840914,0.280080809 0.0616840914,0.625599308 C0.0616840914,0.971117805 0.341764901,1.25119861 0.687283395,1.25119861 L1.07384121,1.25119861 C1.41935971,1.25119861 1.69944051,0.971117805 1.69944051,0.625599308 C1.69944051,0.280080809 1.41929714,0 1.07384121,0 Z" id="Shape"></path>
                    </g>
                </g>
            </g>
        </g>
        <g id="Artboard" fill-rule="nonzero">
            <g id="bus" transform="translate(6.298828, 53.000000)">
                <path d="M49.1783303,6.76461927 C49.1783303,3.59161741 46.6060636,1.01935084 43.4330618,1.01935084 L0.999559556,1.01935084 L0.999559556,11.2483436 L49.1783303,11.2483436 L49.1783303,6.76461927 Z" id="Shape" fill="#29ABE2"></path>
                <g id="Group" transform="translate(0.999559, 11.195067)">
                    <path d="M48.1787707,0.0532765244 L0,0.0532765244 L0,11.3052185 L4.81028041,11.3052185 C4.8091809,11.2711336 4.80768156,11.2372485 4.80768156,11.2029636 C4.80768156,9.45163529 6.227356,8.0319608 7.97868431,8.0319608 C9.73001261,8.0319608 11.149687,9.45163529 11.149687,11.2029636 C11.149687,11.2372485 11.1481877,11.2712335 11.1470882,11.3052185 L35.1904938,11.3052185 C35.1893943,11.2711336 35.187895,11.2372485 35.187895,11.2029636 C35.187895,9.45163529 36.6075694,8.0319608 38.3588977,8.0319608 C40.110226,8.0319608 41.5299004,9.45163529 41.5299004,11.2029636 C41.5299004,11.2372485 41.5284011,11.2712335 41.5273015,11.3052185 L48.1787707,11.3052185 L48.1787707,0.0532765244 Z" id="Shape" fill="#FBB03B"></path>
                    <g id="Shape" transform="translate(4.797886, 7.996476)" fill="#333333">
                        <path d="M3.18079843,0.0354843643 C1.42947012,0.0354843643 0.00979568368,1.4551588 0.00979568368,3.20648711 C0.00979568368,3.240772 0.011295023,3.27475703 0.0123945385,3.30874205 C0.0665706666,5.01259127 1.46385497,6.37748985 3.18079843,6.37748985 C4.89774187,6.37748985 6.29512614,5.01259127 6.34920231,3.30874205 C6.35030182,3.27465707 6.35180117,3.240772 6.35180117,3.20648711 C6.35180117,1.4551588 4.93202677,0.0354843643 3.18079843,0.0354843643 Z"></path>
                        <path d="M33.5610118,0.0354843643 C31.8096835,0.0354843643 30.3900091,1.4551588 30.3900091,3.20648711 C30.3900091,3.240772 30.3915084,3.27475703 30.3926079,3.30874205 C30.446784,5.01259127 31.8440684,6.37748985 33.5610118,6.37748985 C35.2779552,6.37748985 36.6753395,5.01259127 36.7294157,3.30874205 C36.7305152,3.27465707 36.7320145,3.240772 36.7320145,3.20648711 C36.7320145,1.4551588 35.3123401,0.0354843643 33.5610118,0.0354843643 Z"></path>
                    </g>
                </g>
                <g id="Group" fill="#000000">
                    <path d="M50.1778898,6.76461927 C50.1778898,3.04545806 47.1521231,0.0196913233 43.4329619,0.0196913233 L0.999559556,0.0196913233 C0.44760277,0.0196913233 0,0.467194137 0,1.01925088 L0,22.5002856 C0,23.0523423 0.44760277,23.4998451 0.999559556,23.4998451 L4.95651598,23.4998451 C5.44110246,25.2663667 7.05998911,26.5685929 8.97824389,26.5685929 C10.8964986,26.5685929 12.5153853,25.2663667 13.0000717,23.4998451 L35.3368293,23.4998451 C35.8214158,25.2663667 37.4403024,26.5685929 39.3585572,26.5685929 C41.276812,26.5685929 42.8956986,25.2663667 43.380385,23.4998451 L49.1783303,23.4998451 C49.730287,23.4998451 50.1778898,23.0523423 50.1778898,22.5002856 L50.1778898,6.76461927 Z M1.99911911,2.01881044 L43.4329619,2.01881044 C46.0498088,2.01881044 48.1787707,4.14777234 48.1787707,6.76461927 L48.1787707,10.248784 L40.2556619,10.248784 L40.2556619,4.80408315 C40.2556619,4.2520264 39.8080591,3.80452359 39.2561024,3.80452359 C38.7041455,3.80452359 38.2565428,4.2520264 38.2565428,4.80408315 L38.2565428,10.248784 L30.231279,10.248784 L30.231279,4.80408315 C30.231279,4.2520264 29.7836762,3.80452359 29.2317194,3.80452359 C28.6797627,3.80452359 28.2321599,4.2520264 28.2321599,4.80408315 L28.2321599,10.248784 L20.3090511,10.248784 L20.3090511,4.80408315 C20.3090511,4.2520264 19.8614483,3.80452359 19.3094916,3.80452359 C18.7575348,3.80452359 18.309932,4.2520264 18.309932,4.80408315 L18.309932,10.248784 L10.1822134,10.248784 L10.1822134,4.80408315 C10.1822134,4.2520264 9.73461061,3.80452359 9.18265379,3.80452359 C8.63069698,3.80452359 8.18309421,4.2520264 8.18309421,4.80408315 L8.18309421,10.248784 L1.99911911,10.248784 L1.99911911,2.01881044 Z M11.1030076,22.8464331 C10.8927003,23.8375963 9.99129745,24.5694738 8.97824389,24.5694738 C8.08753637,24.5694738 7.26669803,24.0025236 6.94913796,23.1702903 C6.60948762,22.2802825 6.90825597,21.2486371 7.66292345,20.6717913 C8.3414245,20.1531198 9.28880699,20.0841502 10.0345784,20.5014663 C10.8540173,20.9600643 11.2985214,21.9248391 11.1030076,22.8464331 Z M41.483221,22.8464331 C41.2729136,23.8375963 40.3715108,24.5694738 39.3584572,24.5694738 C38.4677497,24.5694738 37.6469114,24.0025236 37.3293514,23.1702903 C36.989701,22.2802825 37.2884694,21.2486371 38.0431368,20.6717913 C38.7216378,20.1531198 39.6690204,20.0841502 40.4147918,20.5014663 C41.2342307,20.9600643 41.6788348,21.9248391 41.483221,22.8464331 Z M43.4307628,21.500726 C43.0190442,19.6310498 41.3499797,18.2273683 39.3583573,18.2273683 C37.3667349,18.2273683 35.6977703,19.6309499 35.2860517,21.500726 L13.0505495,21.500726 C12.6388308,19.6310498 10.9697663,18.2273683 8.97814391,18.2273683 C6.98652148,18.2273683 5.31755689,19.6309499 4.90583831,21.500726 L1.99911911,21.500726 L1.99911911,19.6127579 L3.0453581,19.6127579 C3.59731489,19.6127579 4.04491766,19.1652551 4.04491766,18.6131984 C4.04491766,18.0611416 3.59731489,17.6136388 3.0453581,17.6136388 L1.99911911,17.6136388 L1.99911911,12.2478032 L48.1787707,12.2478032 L48.1787707,13.9311614 L47.0302768,13.9311614 C46.47832,13.9311614 46.0307172,14.3786642 46.0307172,14.930721 C46.0307172,15.4827778 46.47832,15.9302805 47.0302768,15.9302805 L48.1787707,15.9302805 L48.1787707,17.6136388 L45.2912431,17.6136388 C44.7392862,17.6136388 44.2916835,18.0611416 44.2916835,18.6131984 C44.2916835,19.1652551 44.7392862,19.6127579 45.2912431,19.6127579 L48.1787707,19.6127579 L48.1787707,21.500726 L43.4307628,21.500726 Z" id="Shape"></path>
                    <path d="M33.2209617,17.6136388 L15.2178945,17.6136388 C14.6659377,17.6136388 14.2183349,18.0611416 14.2183349,18.6131984 C14.2183349,19.1652551 14.6659377,19.6127579 15.2178945,19.6127579 L33.2209617,19.6127579 C33.7729184,19.6127579 34.2205212,19.1652551 34.2205212,18.6131984 C34.2205212,18.0611416 33.7730184,17.6136388 33.2209617,17.6136388 Z" id="Shape"></path>
                    <path d="M46.3141923,9.48602008 C46.8661491,9.48602008 47.3137519,9.0385173 47.3137519,8.48646057 L47.3137519,6.95213663 C47.3137519,6.40007989 46.8661491,5.95257708 46.3141923,5.95257708 C45.7622355,5.95257708 45.3146327,6.40007989 45.3146327,6.95213663 L45.3146327,8.48646057 C45.3146327,9.0385173 45.7621356,9.48602008 46.3141923,9.48602008 Z" id="Shape"></path>
                </g>
            </g>
            <g id="bus-(1)" transform="translate(62.000000, 5.341222)">
                <g id="Group" transform="translate(2.995194, 0.599039)">
                    <g>
                        <rect id="Rectangle-path" fill="#FBB03B" x="0.0235422282" y="16.160272" width="24.0343386" height="7.97290806"></rect>
                        <path d="M24.0578209,2.4156842 C24.0578209,1.09456385 22.9868592,0.0235422282 21.6656789,0.0235422282 L2.4156243,0.0235422282 C1.09450394,0.0235422282 0.0234823243,1.09450394 0.0234823243,2.4156842 L0.0234823243,6.03250128 L24.0578209,6.03250128 L24.0578209,2.4156842 Z" id="Shape" fill="#FBB03B"></path>
                        <rect id="Rectangle-path" fill="#29ABE2" x="0.0235422282" y="6.03250128" width="24.0343386" height="10.1277707"></rect>
                    </g>
                    <rect id="Rectangle-path" fill="#CCCCCC" x="5.1670099" y="1.93831012" width="13.7910133" height="2.15486267"></rect>
                </g>
                <g id="Group" transform="translate(4.073465, 24.680402)" fill="#333333">
                    <path d="M1.76842269,3.81036653 L1.40929888,3.81036653 C0.635759968,3.81036653 0.00862615996,3.18329263 0.00862615996,2.40969381 L0.00862615996,0.0518168635 L3.16909541,0.0518168635 L3.16909541,2.40969381 C3.16903551,3.18329263 2.5419616,3.81036653 1.76842269,3.81036653 Z" id="Shape"></path>
                    <path d="M20.5155842,3.81036653 L20.1564604,3.81036653 C19.3829215,3.81036653 18.7557876,3.18329263 18.7557876,2.40969381 L18.7557876,0.0518168635 L21.9162569,0.0518168635 L21.9162569,2.40969381 C21.916197,3.18329263 21.2891231,3.81036653 20.5155842,3.81036653 Z" id="Shape"></path>
                </g>
                <circle id="Oval" fill="#CCCCCC" cx="7.06536412" cy="20.8039016" r="1.29350467"></circle>
                <circle id="Oval" fill="#CCCCCC" cx="23.0063879" cy="20.8039016" r="1.29350467"></circle>
                <rect id="Rectangle-path" fill="#FBB03B" x="27.0665536" y="11.3299219" width="2.40615949" height="5.41381392"></rect>
                <g id="Group">
                    <rect id="Rectangle-path" fill="#FBB03B" x="0.599038884" y="11.3299219" width="2.40615949" height="5.41381392"></rect>
                    <g id="Shape" fill="#000000">
                        <path d="M21.9532775,1.93831012 L8.16220432,1.93831012 C7.83135514,1.93831012 7.56316546,2.20649983 7.56316546,2.537349 L7.56316546,4.69221168 C7.56316546,5.02306085 7.83135514,5.29125056 8.16220432,5.29125056 L21.9532775,5.29125056 C22.2840668,5.29125056 22.5523164,5.02306085 22.5523164,4.69221168 L22.5523164,2.537349 C22.5523164,2.20649983 22.2840668,1.93831012 21.9532775,1.93831012 Z M21.3542386,4.09317279 L8.76124323,4.09317279 L8.76124323,3.13638788 L21.3542386,3.13638788 L21.3542386,4.09317279 Z"></path>
                        <path d="M5.36091878,9.45726647 L13.9803096,9.45726647 C14.3111588,9.45726647 14.5793484,9.18907679 14.5793484,8.85822761 C14.5793484,8.52737843 14.3111588,8.2591887 13.9803096,8.2591887 L5.36091878,8.2591887 C5.03006961,8.2591887 4.7618799,8.52737843 4.7618799,8.85822761 C4.7618799,9.18907679 5.03006961,9.45726647 5.36091878,9.45726647 Z"></path>
                        <path d="M16.4224114,9.45726647 L17.4998428,9.45726647 C17.830632,9.45726647 18.0988816,9.18907679 18.0988816,8.85822761 C18.0988816,8.52737843 17.830632,8.2591887 17.4998428,8.2591887 L16.4224114,8.2591887 C16.0916221,8.2591887 15.8233725,8.52737843 15.8233725,8.85822761 C15.8233725,9.18907679 16.0916221,9.45726647 16.4224114,9.45726647 Z"></path>
                        <path d="M7.06536412,22.6964451 C8.10888988,22.6964451 8.95790768,21.8474873 8.95790768,20.8039615 C8.95790768,19.7604358 8.10894979,18.911418 7.06536412,18.911418 C6.02177851,18.911418 5.17282057,19.7603759 5.17282057,20.8039615 C5.17282057,21.8474873 6.02177851,22.6964451 7.06536412,22.6964451 Z M7.06536412,20.1094958 C7.44826979,20.1094958 7.75982991,20.4210559 7.75982991,20.8039615 C7.75982991,21.1868672 7.44826979,21.4983674 7.06536412,21.4983674 C6.68245844,21.4983674 6.37089832,21.1868672 6.37089832,20.8039615 C6.37089832,20.4210559 6.68245844,20.1094958 7.06536412,20.1094958 Z"></path>
                        <path d="M23.0063879,22.6964451 C24.0499136,22.6964451 24.8989314,21.8474873 24.8989314,20.8039615 C24.8989314,19.7604358 24.0499136,18.911418 23.0063879,18.911418 C21.9628622,18.911418 21.1139043,19.7603759 21.1139043,20.8039615 C21.1139043,21.8474873 21.9628622,22.6964451 23.0063879,22.6964451 Z M23.0063879,20.1094958 C23.3893534,20.1094958 23.7008536,20.4210559 23.7008536,20.8039615 C23.7008536,21.1868672 23.3893534,21.4983674 23.0063879,21.4983674 C22.6234822,21.4983674 22.311982,21.1868672 22.311982,20.8039615 C22.311982,20.4210559 22.6234822,20.1094958 23.0063879,20.1094958 Z"></path>
                        <path d="M27.6520542,3.01472309 C27.6520542,1.36538933 26.3102671,0.0235422282 24.6608734,0.0235422282 L5.41087863,0.0235422282 C3.76154487,0.0235422282 2.41969777,1.36538933 2.41969777,3.01472309 L2.41969777,10.7308831 L0.599038884,10.7308831 C0.268189709,10.7308831 0,10.9990727 0,11.3299219 L0,16.7437359 C0,17.0745851 0.268189709,17.3427747 0.599038884,17.3427747 L2.41969777,17.3427747 L2.41969777,24.7322189 C2.41969777,25.0630681 2.68788748,25.3312578 3.01873665,25.3312578 L3.48305169,25.3312578 L3.48305169,27.0900959 C3.48305169,28.1927467 4.38011242,29.0897475 5.48276329,29.0897475 L5.84188711,29.0897475 C6.94453799,29.0897475 7.84159869,28.1926868 7.84159869,27.0900959 L7.84159869,25.3312578 L22.2302132,25.3312578 L22.2302132,27.0900959 C22.2302132,28.1927467 23.1272739,29.0897475 24.2299248,29.0897475 L24.5890486,29.0897475 C25.6916995,29.0897475 26.5887602,28.1926868 26.5887602,27.0900959 L26.5887602,25.3312578 L27.0530752,25.3312578 C27.3838645,25.3312578 27.6521142,25.0630681 27.6521142,24.7322189 L27.6521142,17.3427747 L29.4727131,17.3427747 C29.8035024,17.3427747 30.071752,17.0745851 30.071752,16.7437359 L30.071752,11.3299219 C30.071752,10.9990727 29.8035024,10.7308831 29.4727131,10.7308831 L27.6520542,10.7308831 L27.6520542,3.01472309 Z M3.61777554,24.1332399 L3.61777554,17.3584097 L26.4540364,17.3584097 L26.4540364,24.1332399 L3.61777554,24.1332399 Z M26.4539765,16.1603319 L23.8170672,16.1603319 C23.7853182,16.1433192 23.7518918,16.1285229 23.7163687,16.1171412 L16.1026444,13.6749196 C15.7874901,13.5738018 15.4502312,13.7473433 15.3492332,14.0623779 C15.2482353,14.3774124 15.421657,14.7147313 15.7366916,14.8157292 L19.928586,16.160272 L13.832946,16.160272 L6.11846333,13.6749196 C5.803309,13.5738018 5.46611001,13.7472835 5.36511206,14.0623779 C5.2640542,14.3774124 5.43753586,14.7147313 5.75257041,14.8157292 L9.9444648,16.160272 L3.61777554,16.160272 L3.61777554,7.23057905 L26.4540364,7.23057905 L26.4540364,16.1603319 L26.4539765,16.1603319 Z M3.61777554,3.01472309 C3.61777554,2.02600941 4.42216495,1.22162 5.41087863,1.22162 L24.6609332,1.22162 C25.649647,1.22162 26.4540364,2.02600941 26.4540364,3.01472309 L26.4540364,6.03250128 L3.61777554,6.03250128 L3.61777554,3.01472309 Z M2.40615949,16.144697 L1.19807777,16.144697 L1.19807777,11.9289608 L2.40615949,11.9289608 L2.40615949,16.144697 Z M6.64346107,27.0901558 C6.64346107,27.5321267 6.283858,27.8917297 5.8418272,27.8917297 L5.48270339,27.8917297 C5.0406726,27.8917297 4.68106955,27.5321267 4.68106955,27.0901558 L4.68106955,25.3313177 L6.64346107,25.3313177 C6.64346107,25.3313177 6.64346107,27.0901558 6.64346107,27.0901558 Z M25.3906225,27.0901558 C25.3906225,27.5321267 25.0310195,27.8917297 24.5889887,27.8917297 L24.2298649,27.8917297 C23.7878341,27.8917297 23.4282311,27.5321267 23.4282311,27.0901558 L23.4282311,25.3313177 L25.3906225,25.3313177 L25.3906225,27.0901558 L25.3906225,27.0901558 Z M28.8736743,16.144697 L27.6655925,16.144697 L27.6655925,11.9289608 L28.8736743,11.9289608 L28.8736743,16.144697 Z"></path>
                    </g>
                </g>
            </g>
            <g id="helicopter" transform="translate(5.000000, 6.000000)">
                <g id="Group" transform="translate(1.068403, 1.068403)">
                    <path d="M44.4025025,17.7387996 C43.3103811,10.9380948 37.4160025,5.74245171 30.3072772,5.74245171 L29.6601456,5.74245171 L29.6601456,17.7387996 L44.4025025,17.7387996 Z" id="Shape" fill="#29ABE2"></path>
                    <path d="M44.4025025,17.7387996 L29.6601456,17.7387996 L29.6601456,5.74255855 L23.3313544,5.74255855 L20.4030758,5.74255855 L7.36781299,5.74255855 L7.36781299,3.68801984 C7.36781299,1.69256382 5.75014421,0.075001881 3.75479502,0.075001881 L0,0.075001881 L0,5.74255855 L0,7.44281487 L0,8.29294303 L9.69960224,10.4787884 C12.0636573,11.0114941 14.0910585,12.5215747 15.2785883,14.633914 L19.0635123,21.366882 C19.8909903,22.8389275 21.4484012,23.7500615 23.1371187,23.7500615 L44.584772,23.7500615 L44.584772,20.0199465 C44.5846652,19.2434313 44.5217362,18.4816601 44.4025025,17.7387996 Z" id="Shape" fill="#FBB03B"></path>
                </g>
                <g id="Group" fill="#000000">
                    <path d="M37.4170709,13.1211624 C38.3714752,13.8836815 39.1679695,14.8035764 39.7844379,15.8553122 C39.9832677,16.1946369 40.3404348,16.3836374 40.7072175,16.3836374 C40.8907691,16.3836374 41.0766712,16.3363071 41.2464404,16.2368388 C41.7555344,15.9385408 41.9262652,15.2839303 41.6279671,14.7748364 C40.8785893,13.4963855 39.9106163,12.3783019 38.750865,11.4516761 C38.2898492,11.0835045 37.6176101,11.1585063 37.2492248,11.6195222 C36.8808395,12.080538 36.956055,12.7528839 37.4170709,13.1211624 Z" id="Shape"></path>
                    <path d="M33.7106745,11.2729323 C34.1019236,11.372828 34.4908223,11.4982585 34.8667932,11.6459117 C34.9950016,11.6962335 35.1270562,11.7200589 35.2568671,11.7200589 C35.6833736,11.7200589 36.0863751,11.4628943 36.251657,11.0417299 C36.4672607,10.492464 36.1967411,9.87246982 35.6474752,9.65686612 C35.1896646,9.47716076 34.7159348,9.32437915 34.2394271,9.20268806 C33.667511,9.05674423 33.0857657,9.40173152 32.9398218,9.97343389 C32.793878,10.5451363 33.1389721,11.1268816 33.7106745,11.2729323 Z" id="Shape"></path>
                    <path d="M15.4156644,16.2259411 L19.2004815,22.9588023 C20.2156779,24.7649373 22.1334611,25.8868672 24.2054148,25.8868672 L24.2673821,25.8868672 L22.2766271,27.8776222 C21.8594157,28.2948336 21.8594157,28.9713462 22.2766271,29.3886644 C22.4852861,29.5973235 22.7586904,29.7015996 23.0320947,29.7015996 C23.305499,29.7015996 23.5790102,29.5973235 23.7875624,29.3886644 L27.2893596,25.8868672 L41.3618279,25.8868672 L39.3710729,27.8776222 C38.9538616,28.2948336 38.9538616,28.9713462 39.3710729,29.3886644 C39.579732,29.5973235 39.8531362,29.7015996 40.1265405,29.7015996 C40.3999448,29.7015996 40.673456,29.5973235 40.8820082,29.3886644 L44.3838054,25.8868672 L45.653068,25.8868672 C46.2431469,25.8868672 46.7214709,25.4085432 46.7214709,24.8184643 L46.7214709,21.0883494 C46.7214709,20.2709144 46.6556573,19.4464279 46.5257395,18.6378606 C46.5257395,18.6377538 46.5257395,18.6376469 46.5257395,18.6376469 C45.9537166,15.0762328 44.1249314,11.8129031 41.3761445,9.44884808 C38.5972287,7.05883088 35.0456439,5.74266539 31.37568,5.74266539 L30.7285484,5.74266539 L9.50461871,5.74266539 L9.50461871,4.75663639 C9.50461871,2.17526823 7.40456604,0.0752155616 4.82319789,0.0752155616 L1.06840286,0.0752155616 C0.478323962,0.0752155616 0,0.553539524 0,1.14361842 L0,9.36155957 C0,9.86114475 0.346162528,10.2940616 0.833567914,10.4037866 L10.5331701,12.589632 C12.5984997,13.0548146 14.3781384,14.3802752 15.4156644,16.2259411 Z M44.157304,17.7387996 L31.7969513,17.7387996 L31.7969513,7.88577469 C37.7105611,8.06868526 42.6963699,12.0896194 44.157304,17.7387996 Z M2.13680573,8.50694412 L2.13680573,2.21180761 L4.82319789,2.21180761 C6.22633137,2.21180761 7.36781299,3.35339607 7.36781299,4.75642271 L7.36781299,6.81085457 C7.36781299,7.40093347 7.84613695,7.87925744 8.43621585,7.87925744 L29.6601456,7.87925744 L29.6601456,18.8072024 C29.6601456,19.3972813 30.1384695,19.8756053 30.7285484,19.8756053 L44.5291082,19.8756053 C44.566075,20.2793547 44.5846652,20.6848136 44.5846652,21.0882426 L44.5846652,23.7499546 L24.2054148,23.7499546 C22.9046343,23.7499546 21.7006511,23.0455566 21.0631351,21.9116606 L17.2783179,15.1786926 C15.9448443,12.8066246 13.6575006,11.1030562 11.00284,10.5047506 L2.13680573,8.50694412 Z" id="Shape"></path>
                    <path d="M53.3208885,27.554003 C52.9036772,27.1368985 52.2272714,27.1366848 51.8099532,27.554003 L51.3161374,28.047712 C49.6091502,29.7546992 47.339542,30.6947869 44.9254857,30.6947869 L12.2028701,30.6947869 C11.6127912,30.6947869 11.1344673,31.1731109 11.1344673,31.7631898 C11.1344673,32.3532687 11.6127912,32.8315926 12.2028701,32.8315926 L44.9254857,32.8315926 C47.9103896,32.8315926 50.7166566,31.6692772 52.8271796,29.5586473 L53.3208885,29.0649383 C53.7380999,28.6478339 53.7382067,27.9713212 53.3208885,27.554003 Z" id="Shape"></path>
                </g>
            </g>
        </g>
    </g>
</svg>