<?xml version="1.0" encoding="UTF-8"?>
<svg width="196px" height="89px" viewBox="0 0 196 89" version="1.1" xmlns="http://www.w3.org/2000/svg" xmlns:xlink="http://www.w3.org/1999/xlink">
    <!-- Generator: Sketch 45.2 (43514) - http://www.bohemiancoding.com/sketch -->
    <title>logo</title>
    <desc>Created with Sketch.</desc>
    <defs></defs>
    <g id="Page-1" stroke="none" stroke-width="1" fill="none" fill-rule="evenodd">
        <g id="logo" fill-rule="nonzero">
            <g id="Group-3" fill="#FFFFFF">
                <g id="Group-2">
                    <g id="Group">
                        <rect id="Rectangle" x="0" y="0" width="195.67701" height="89" rx="7"></rect>
                    </g>
                </g>
            </g>
            <g id="Group" transform="translate(7.000000, 7.000000)">
                <polygon id="Path" fill="#E90226" points="128.293448 2.84217094e-14 92.2179923 2.84217094e-14 60 36.4361604 92.2179923 74.2314863 128.293448 74.2314863 95.6199225 37.1157432"></polygon>
                <polygon id="Path-Copy" fill="#E90226" points="181.293448 2.84217094e-14 145.217992 2.84217094e-14 113 36.4361604 145.217992 74.2314863 181.293448 74.2314863 148.619922 37.1157432"></polygon>
                <polygon id="Path-2" fill="#000000" transform="translate(41.890753, 65.749601) rotate(-180.000000) translate(-41.890753, -65.749601) " points="27.0000007 57.9999991 56.781506 57.9999991 41.2823031 73.499202"></polygon>
                <polygon id="Path-2-Copy" fill="#000000" transform="translate(42.890753, 7.749601) rotate(0.000000) translate(-42.890753, -7.749601) " points="28 0 57.7815053 0 42.2823024 15.4992029"></polygon>
                <polygon id="Path-2-Copy-2" fill="#000000" transform="translate(12.823023, 35.836442) rotate(-90.000000) translate(-12.823023, -35.836442) " points="-12.013419 23.8081827 37.6594646 23.8081827 11.8081823 47.8647011"></polygon>
            </g>
        </g>
    </g>
</svg>